<?xml version="1.0" encoding="UTF-8" standalone="no"?><svg xmlns="http://www.w3.org/2000/svg" xmlns:xlink="http://www.w3.org/1999/xlink" clip-rule="evenodd" stroke-miterlimit="10" viewBox="0 0 1024 768"><desc>SVG generated by Keynote</desc><defs></defs><g transform="matrix(1.00, 0.00, -0.00, -1.00, 0.0, 768.0)"><g><clipPath id="clip0x7f8498fc51b0"><path d="M 0.0 768.0 L 1024.0 768.0 L 1024.0 0.0 L 0.0 0.0 Z M 0.0 768.0 "></path></clipPath><g clip-path="url(#clip0x7f8498fc51b0)"><image xlink:href="../../C667F2AE-898B-45BB-A62C-D7DBF1FCC302/assets/16FCC1994AC46CEBE0A3ED4AD69C42B7.jpeg" width="2048.00" height="1536.00" transform="matrix(0.50, 0.00, -0.00, -0.50, 0.0, 768.0)"></image></g></g><image xlink:href="../../7C289C49-BDD2-46CB-86CF-CFFAC882FB95/assets/BEB3D4AAB59063FE1EE3A2ED6B17BF2A.png" width="791.00" height="82.00" transform="matrix(1.00, 0.00, -0.00, -1.00, 119.0, 683.0)"></image><text xml:space="preserve" font-family="Baskerville,Baskerville" font-size="78.0" fill="#767366" transform="matrix(1.00, 0.00, -0.00, -1.00, 119.9, 626.2)">S</text><text xml:space="preserve" font-family="Baskerville,Baskerville" font-size="78.0" fill="#767366" transform="matrix(1.00, 0.00, -0.00, -1.00, 162.1, 626.2)">t</text><text xml:space="preserve" font-family="Baskerville,Baskerville" font-size="78.0" fill="#767366" transform="matrix(1.00, 0.00, -0.00, -1.00, 184.8, 626.2)">a</text><text xml:space="preserve" font-family="Baskerville,Baskerville" font-size="78.0" fill="#767366" transform="matrix(1.00, 0.00, -0.00, -1.00, 220.5, 626.2)">t</text><text xml:space="preserve" font-family="Baskerville,Baskerville" font-size="78.0" fill="#767366" transform="matrix(1.00, 0.00, -0.00, -1.00, 243.2, 626.2)">i</text><text xml:space="preserve" font-family="Baskerville,Baskerville" font-size="78.0" fill="#767366" transform="matrix(1.00, 0.00, -0.00, -1.00, 262.7, 626.2)">c</text><text xml:space="preserve" font-family="Baskerville,Baskerville" font-size="78.0" fill="#767366" transform="matrix(1.00, 0.00, -0.00, -1.00, 296.1, 626.2)"> </text><text xml:space="preserve" font-family="Baskerville,Baskerville" font-size="78.0" fill="#767366" transform="matrix(1.00, 0.00, -0.00, -1.00, 315.6, 626.2)">a</text><text xml:space="preserve" font-family="Baskerville,Baskerville" font-size="78.0" fill="#767366" transform="matrix(1.00, 0.00, -0.00, -1.00, 352.1, 626.2)">n</text><text xml:space="preserve" font-family="Baskerville,Baskerville" font-size="78.0" fill="#767366" transform="matrix(1.00, 0.00, -0.00, -1.00, 393.6, 626.2)">d</text><text xml:space="preserve" font-family="Baskerville,Baskerville" font-size="78.0" fill="#767366" transform="matrix(1.00, 0.00, -0.00, -1.00, 434.2, 626.2)"> </text><text xml:space="preserve" font-family="Baskerville,Baskerville" font-size="78.0" fill="#767366" transform="matrix(1.00, 0.00, -0.00, -1.00, 453.7, 626.2)">S</text><text xml:space="preserve" font-family="Baskerville,Baskerville" font-size="78.0" fill="#767366" transform="matrix(1.00, 0.00, -0.00, -1.00, 495.9, 626.2)">t</text><text xml:space="preserve" font-family="Baskerville,Baskerville" font-size="78.0" fill="#767366" transform="matrix(1.00, 0.00, -0.00, -1.00, 518.6, 626.2)">r</text><text xml:space="preserve" font-family="Baskerville,Baskerville" font-size="78.0" fill="#767366" transform="matrix(1.00, 0.00, -0.00, -1.00, 545.6, 626.2)">o</text><text xml:space="preserve" font-family="Baskerville,Baskerville" font-size="78.0" fill="#767366" transform="matrix(1.00, 0.00, -0.00, -1.00, 584.6, 626.2)">n</text><text xml:space="preserve" font-family="Baskerville,Baskerville" font-size="78.0" fill="#767366" transform="matrix(1.00, 0.00, -0.00, -1.00, 626.0, 626.2)">g</text><text xml:space="preserve" font-family="Baskerville,Baskerville" font-size="78.0" fill="#767366" transform="matrix(1.00, 0.00, -0.00, -1.00, 662.6, 626.2)"> </text><text xml:space="preserve" font-family="Baskerville,Baskerville" font-size="78.0" fill="#767366" transform="matrix(1.00, 0.00, -0.00, -1.00, 682.1, 626.2)">T</text><text xml:space="preserve" font-family="Baskerville,Baskerville" font-size="78.0" fill="#767366" transform="matrix(1.00, 0.00, -0.00, -1.00, 730.0, 626.2)">y</text><text xml:space="preserve" font-family="Baskerville,Baskerville" font-size="78.0" fill="#767366" transform="matrix(1.00, 0.00, -0.00, -1.00, 765.8, 626.2)">p</text><text xml:space="preserve" font-family="Baskerville,Baskerville" font-size="78.0" fill="#767366" transform="matrix(1.00, 0.00, -0.00, -1.00, 806.4, 626.2)">i</text><text xml:space="preserve" font-family="Baskerville,Baskerville" font-size="78.0" fill="#767366" transform="matrix(1.00, 0.00, -0.00, -1.00, 825.9, 626.2)">n</text><text xml:space="preserve" font-family="Baskerville,Baskerville" font-size="78.0" fill="#767366" transform="matrix(1.00, 0.00, -0.00, -1.00, 867.4, 626.2)">g</text><text xml:space="preserve" font-family="HoeflerText-Regular,Hoefler Text" font-size="36.0" fill="#5E5E5E" transform="matrix(1.00, 0.00, -0.00, -1.00, 130.1, 372.5)">I</text><text xml:space="preserve" font-family="HoeflerText-Regular,Hoefler Text" font-size="36.0" fill="#5E5E5E" transform="matrix(1.00, 0.00, -0.00, -1.00, 143.6, 372.5)">f</text><text xml:space="preserve" font-family="HoeflerText-Regular,Hoefler Text" font-size="36.0" fill="#5E5E5E" transform="matrix(1.00, 0.00, -0.00, -1.00, 155.6, 372.5)"> </text><text xml:space="preserve" font-family="HoeflerText-Regular,Hoefler Text" font-size="36.0" fill="#5E5E5E" transform="matrix(1.00, 0.00, -0.00, -1.00, 164.6, 372.5)">t</text><text xml:space="preserve" font-family="HoeflerText-Regular,Hoefler Text" font-size="36.0" fill="#5E5E5E" transform="matrix(1.00, 0.00, -0.00, -1.00, 177.9, 372.5)">h</text><text xml:space="preserve" font-family="HoeflerText-Regular,Hoefler Text" font-size="36.0" fill="#5E5E5E" transform="matrix(1.00, 0.00, -0.00, -1.00, 197.8, 372.5)">e</text><text xml:space="preserve" font-family="HoeflerText-Regular,Hoefler Text" font-size="36.0" fill="#5E5E5E" transform="matrix(1.00, 0.00, -0.00, -1.00, 214.7, 372.5)"> </text><text xml:space="preserve" font-family="HoeflerText-Regular,Hoefler Text" font-size="36.0" fill="#5E5E5E" transform="matrix(1.00, 0.00, -0.00, -1.00, 223.7, 372.5)">t</text><text xml:space="preserve" font-family="HoeflerText-Regular,Hoefler Text" font-size="36.0" fill="#5E5E5E" transform="matrix(1.00, 0.00, -0.00, -1.00, 237.0, 372.5)">y</text><text xml:space="preserve" font-family="HoeflerText-Regular,Hoefler Text" font-size="36.0" fill="#5E5E5E" transform="matrix(1.00, 0.00, -0.00, -1.00, 254.4, 372.5)">p</text><text xml:space="preserve" font-family="HoeflerText-Regular,Hoefler Text" font-size="36.0" fill="#5E5E5E" transform="matrix(1.00, 0.00, -0.00, -1.00, 274.1, 372.5)">e</text><text xml:space="preserve" font-family="HoeflerText-Regular,Hoefler Text" font-size="36.0" fill="#5E5E5E" transform="matrix(1.00, 0.00, -0.00, -1.00, 290.9, 372.5)">s</text><text xml:space="preserve" font-family="HoeflerText-Regular,Hoefler Text" font-size="36.0" fill="#5E5E5E" transform="matrix(1.00, 0.00, -0.00, -1.00, 304.7, 372.5)"> </text><text xml:space="preserve" font-family="HoeflerText-Regular,Hoefler Text" font-size="36.0" fill="#5E5E5E" transform="matrix(1.00, 0.00, -0.00, -1.00, 313.7, 372.5)">d</text><text xml:space="preserve" font-family="HoeflerText-Regular,Hoefler Text" font-size="36.0" fill="#5E5E5E" transform="matrix(1.00, 0.00, -0.00, -1.00, 333.2, 372.5)">o</text><text xml:space="preserve" font-family="HoeflerText-Regular,Hoefler Text" font-size="36.0" fill="#5E5E5E" transform="matrix(1.00, 0.00, -0.00, -1.00, 352.5, 372.5)"> </text><text xml:space="preserve" font-family="HoeflerText-Regular,Hoefler Text" font-size="36.0" fill="#5E5E5E" transform="matrix(1.00, 0.00, -0.00, -1.00, 361.5, 372.5)">n</text><text xml:space="preserve" font-family="HoeflerText-Regular,Hoefler Text" font-size="36.0" fill="#5E5E5E" transform="matrix(1.00, 0.00, -0.00, -1.00, 381.2, 372.5)">o</text><text xml:space="preserve" font-family="HoeflerText-Regular,Hoefler Text" font-size="36.0" fill="#5E5E5E" transform="matrix(1.00, 0.00, -0.00, -1.00, 400.5, 372.5)">t</text><text xml:space="preserve" font-family="HoeflerText-Regular,Hoefler Text" font-size="36.0" fill="#5E5E5E" transform="matrix(1.00, 0.00, -0.00, -1.00, 413.8, 372.5)"> </text><text xml:space="preserve" font-family="HoeflerText-Regular,Hoefler Text" font-size="36.0" fill="#5E5E5E" transform="matrix(1.00, 0.00, -0.00, -1.00, 422.8, 372.5)">m</text><text xml:space="preserve" font-family="HoeflerText-Regular,Hoefler Text" font-size="36.0" fill="#5E5E5E" transform="matrix(1.00, 0.00, -0.00, -1.00, 452.6, 372.5)">a</text><text xml:space="preserve" font-family="HoeflerText-Regular,Hoefler Text" font-size="36.0" fill="#5E5E5E" transform="matrix(1.00, 0.00, -0.00, -1.00, 468.6, 372.5)">t</text><text xml:space="preserve" font-family="HoeflerText-Regular,Hoefler Text" font-size="36.0" fill="#5E5E5E" transform="matrix(1.00, 0.00, -0.00, -1.00, 481.9, 372.5)">c</text><text xml:space="preserve" font-family="HoeflerText-Regular,Hoefler Text" font-size="36.0" fill="#5E5E5E" transform="matrix(1.00, 0.00, -0.00, -1.00, 498.6, 372.5)">h</text><text xml:space="preserve" font-family="HoeflerText-Regular,Hoefler Text" font-size="36.0" fill="#5E5E5E" transform="matrix(1.00, 0.00, -0.00, -1.00, 518.5, 372.5)">,</text><text xml:space="preserve" font-family="HoeflerText-Regular,Hoefler Text" font-size="36.0" fill="#5E5E5E" transform="matrix(1.00, 0.00, -0.00, -1.00, 527.4, 372.5)"> </text><text xml:space="preserve" font-family="HoeflerText-Regular,Hoefler Text" font-size="36.0" fill="#5E5E5E" transform="matrix(1.00, 0.00, -0.00, -1.00, 536.4, 372.5)">t</text><text xml:space="preserve" font-family="HoeflerText-Regular,Hoefler Text" font-size="36.0" fill="#5E5E5E" transform="matrix(1.00, 0.00, -0.00, -1.00, 549.7, 372.5)">h</text><text xml:space="preserve" font-family="HoeflerText-Regular,Hoefler Text" font-size="36.0" fill="#5E5E5E" transform="matrix(1.00, 0.00, -0.00, -1.00, 569.6, 372.5)">e</text><text xml:space="preserve" font-family="HoeflerText-Regular,Hoefler Text" font-size="36.0" fill="#5E5E5E" transform="matrix(1.00, 0.00, -0.00, -1.00, 586.5, 372.5)">n</text><text xml:space="preserve" font-family="HoeflerText-Regular,Hoefler Text" font-size="36.0" fill="#5E5E5E" transform="matrix(1.00, 0.00, -0.00, -1.00, 606.2, 372.5)"> </text><text xml:space="preserve" font-family="HoeflerText-Regular,Hoefler Text" font-size="36.0" fill="#5E5E5E" transform="matrix(1.00, 0.00, -0.00, -1.00, 615.2, 372.5)">i</text><text xml:space="preserve" font-family="HoeflerText-Regular,Hoefler Text" font-size="36.0" fill="#5E5E5E" transform="matrix(1.00, 0.00, -0.00, -1.00, 625.3, 372.5)">t</text><text xml:space="preserve" font-family="HoeflerText-Regular,Hoefler Text" font-size="36.0" fill="#5E5E5E" transform="matrix(1.00, 0.00, -0.00, -1.00, 638.6, 372.5)"> </text><text xml:space="preserve" font-family="HoeflerText-Regular,Hoefler Text" font-size="36.0" fill="#5E5E5E" transform="matrix(1.00, 0.00, -0.00, -1.00, 647.6, 372.5)">d</text><text xml:space="preserve" font-family="HoeflerText-Regular,Hoefler Text" font-size="36.0" fill="#5E5E5E" transform="matrix(1.00, 0.00, -0.00, -1.00, 667.1, 372.5)">o</text><text xml:space="preserve" font-family="HoeflerText-Regular,Hoefler Text" font-size="36.0" fill="#5E5E5E" transform="matrix(1.00, 0.00, -0.00, -1.00, 686.4, 372.5)">e</text><text xml:space="preserve" font-family="HoeflerText-Regular,Hoefler Text" font-size="36.0" fill="#5E5E5E" transform="matrix(1.00, 0.00, -0.00, -1.00, 703.2, 372.5)">s</text><text xml:space="preserve" font-family="HoeflerText-Regular,Hoefler Text" font-size="36.0" fill="#5E5E5E" transform="matrix(1.00, 0.00, -0.00, -1.00, 717.0, 372.5)">n</text><text xml:space="preserve" font-family="HoeflerText-Regular,Hoefler Text" font-size="36.0" fill="#5E5E5E" transform="matrix(1.00, 0.00, -0.00, -1.00, 735.3, 372.5)">’</text><text xml:space="preserve" font-family="HoeflerText-Regular,Hoefler Text" font-size="36.0" fill="#5E5E5E" transform="matrix(1.00, 0.00, -0.00, -1.00, 741.4, 372.5)">t</text><text xml:space="preserve" font-family="HoeflerText-Regular,Hoefler Text" font-size="36.0" fill="#5E5E5E" transform="matrix(1.00, 0.00, -0.00, -1.00, 754.7, 372.5)"> </text><text xml:space="preserve" font-family="HoeflerText-Regular,Hoefler Text" font-size="36.0" fill="#5E5E5E" transform="matrix(1.00, 0.00, -0.00, -1.00, 763.7, 372.5)">c</text><text xml:space="preserve" font-family="HoeflerText-Regular,Hoefler Text" font-size="36.0" fill="#5E5E5E" transform="matrix(1.00, 0.00, -0.00, -1.00, 780.0, 372.5)">o</text><text xml:space="preserve" font-family="HoeflerText-Regular,Hoefler Text" font-size="36.0" fill="#5E5E5E" transform="matrix(1.00, 0.00, -0.00, -1.00, 799.3, 372.5)">m</text><text xml:space="preserve" font-family="HoeflerText-Regular,Hoefler Text" font-size="36.0" fill="#5E5E5E" transform="matrix(1.00, 0.00, -0.00, -1.00, 829.1, 372.5)">p</text><text xml:space="preserve" font-family="HoeflerText-Regular,Hoefler Text" font-size="36.0" fill="#5E5E5E" transform="matrix(1.00, 0.00, -0.00, -1.00, 848.8, 372.5)">i</text><text xml:space="preserve" font-family="HoeflerText-Regular,Hoefler Text" font-size="36.0" fill="#5E5E5E" transform="matrix(1.00, 0.00, -0.00, -1.00, 858.9, 372.5)">l</text><text xml:space="preserve" font-family="HoeflerText-Regular,Hoefler Text" font-size="36.0" fill="#5E5E5E" transform="matrix(1.00, 0.00, -0.00, -1.00, 868.2, 372.5)">e</text><text xml:space="preserve" font-family="HoeflerText-Regular,Hoefler Text" font-size="36.0" fill="#5E5E5E" transform="matrix(1.00, 0.00, -0.00, -1.00, 885.0, 372.5)">.</text></g></svg>