<?xml version="1.0" encoding="UTF-8" standalone="no"?><svg xmlns="http://www.w3.org/2000/svg" xmlns:xlink="http://www.w3.org/1999/xlink" clip-rule="evenodd" stroke-miterlimit="10" viewBox="0 0 1024 768"><desc>SVG generated by Keynote</desc><defs></defs><g transform="matrix(1.00, 0.00, -0.00, -1.00, 0.0, 768.0)"><g><clipPath id="clip0x7f84977067a0"><path d="M 0.0 768.0 L 1024.0 768.0 L 1024.0 0.0 L 0.0 0.0 Z M 0.0 768.0 "></path></clipPath><g clip-path="url(#clip0x7f84977067a0)"><image xlink:href="../../C667F2AE-898B-45BB-A62C-D7DBF1FCC302/assets/16FCC1994AC46CEBE0A3ED4AD69C42B7.jpeg" width="2048.00" height="1536.00" transform="matrix(0.50, 0.00, -0.00, -0.50, 0.0, 768.0)"></image></g></g><image xlink:href="../../98C6EA96-4128-4172-BE65-9672DC765A2E/assets/0AE4DDFAA150B0EEA170E8AA30F2F82F.png" width="363.00" height="65.00" transform="matrix(1.00, 0.00, -0.00, -1.00, 330.0, 683.0)"></image><text xml:space="preserve" font-family="Baskerville,Baskerville" font-size="78.0" fill="#767366" transform="matrix(1.00, 0.00, -0.00, -1.00, 333.5, 626.2)">D</text><text xml:space="preserve" font-family="Baskerville,Baskerville" font-size="78.0" fill="#767366" transform="matrix(1.00, 0.00, -0.00, -1.00, 392.9, 626.2)">e</text><text xml:space="preserve" font-family="Baskerville,Baskerville" font-size="78.0" fill="#767366" transform="matrix(1.00, 0.00, -0.00, -1.00, 427.0, 626.2)">c</text><text xml:space="preserve" font-family="Baskerville,Baskerville" font-size="78.0" fill="#767366" transform="matrix(1.00, 0.00, -0.00, -1.00, 460.3, 626.2)">l</text><text xml:space="preserve" font-family="Baskerville,Baskerville" font-size="78.0" fill="#767366" transform="matrix(1.00, 0.00, -0.00, -1.00, 479.0, 626.2)">a</text><text xml:space="preserve" font-family="Baskerville,Baskerville" font-size="78.0" fill="#767366" transform="matrix(1.00, 0.00, -0.00, -1.00, 515.5, 626.2)">r</text><text xml:space="preserve" font-family="Baskerville,Baskerville" font-size="78.0" fill="#767366" transform="matrix(1.00, 0.00, -0.00, -1.00, 543.9, 626.2)">a</text><text xml:space="preserve" font-family="Baskerville,Baskerville" font-size="78.0" fill="#767366" transform="matrix(1.00, 0.00, -0.00, -1.00, 579.7, 626.2)">t</text><text xml:space="preserve" font-family="Baskerville,Baskerville" font-size="78.0" fill="#767366" transform="matrix(1.00, 0.00, -0.00, -1.00, 602.4, 626.2)">i</text><text xml:space="preserve" font-family="Baskerville,Baskerville" font-size="78.0" fill="#767366" transform="matrix(1.00, 0.00, -0.00, -1.00, 621.9, 626.2)">v</text><text xml:space="preserve" font-family="Baskerville,Baskerville" font-size="78.0" fill="#767366" transform="matrix(1.00, 0.00, -0.00, -1.00, 656.2, 626.2)">e</text><image xlink:href="../../98C6EA96-4128-4172-BE65-9672DC765A2E/assets/1026B0CE28C4395BD70D281A5185AEDC.png" width="578.00" height="150.00" transform="matrix(1.00, 0.00, -0.00, -1.00, 233.0, 549.0)"></image><image xlink:href="../../98C6EA96-4128-4172-BE65-9672DC765A2E/assets/12A498CE915D5002BC5D9A1BC5329917.png" width="534.00" height="78.00" transform="matrix(1.00, 0.00, -0.00, -1.00, 245.0, 289.0)"></image></g></svg>