<?xml version="1.0" encoding="UTF-8" standalone="no"?><svg xmlns="http://www.w3.org/2000/svg" xmlns:xlink="http://www.w3.org/1999/xlink" clip-rule="evenodd" stroke-miterlimit="10" viewBox="0 0 1024 768"><desc>SVG generated by Keynote</desc><defs></defs><g transform="matrix(1.00, 0.00, -0.00, -1.00, 0.0, 768.0)"><g><clipPath id="clip0x7f849b153f20"><path d="M 0.0 768.0 L 1024.0 768.0 L 1024.0 0.0 L 0.0 0.0 Z M 0.0 768.0 "></path></clipPath><g clip-path="url(#clip0x7f849b153f20)"><image xlink:href="6D6A0B54417F6268CFD297EC1A6844B3.jpeg" width="2048.00" height="1536.00" transform="matrix(0.50, 0.00, -0.00, -0.50, 0.0, 768.0)"></image></g></g><image xlink:href="D3F62B64AD7BDA52ACA8A3185A1A0792.png" width="720.00" height="82.00" transform="matrix(1.00, 0.00, -0.00, -1.00, 153.0, 607.0)"></image><text xml:space="preserve" font-family="Baskerville,Baskerville" font-size="78.0" fill="#276D6D" transform="matrix(1.00, 0.00, -0.00, -1.00, 154.8, 550.2)">G</text><text xml:space="preserve" font-family="Baskerville,Baskerville" font-size="78.0" fill="#276D6D" transform="matrix(1.00, 0.00, -0.00, -1.00, 214.9, 550.2)">r</text><text xml:space="preserve" font-family="Baskerville,Baskerville" font-size="78.0" fill="#276D6D" transform="matrix(1.00, 0.00, -0.00, -1.00, 241.9, 550.2)">o</text><text xml:space="preserve" font-family="Baskerville,Baskerville" font-size="78.0" fill="#276D6D" transform="matrix(1.00, 0.00, -0.00, -1.00, 280.1, 550.2)">w</text><text xml:space="preserve" font-family="Baskerville,Baskerville" font-size="78.0" fill="#276D6D" transform="matrix(1.00, 0.00, -0.00, -1.00, 332.9, 550.2)">i</text><text xml:space="preserve" font-family="Baskerville,Baskerville" font-size="78.0" fill="#276D6D" transform="matrix(1.00, 0.00, -0.00, -1.00, 352.4, 550.2)">n</text><text xml:space="preserve" font-family="Baskerville,Baskerville" font-size="78.0" fill="#276D6D" transform="matrix(1.00, 0.00, -0.00, -1.00, 393.9, 550.2)">g</text><text xml:space="preserve" font-family="Baskerville,Baskerville" font-size="78.0" fill="#276D6D" transform="matrix(1.00, 0.00, -0.00, -1.00, 430.4, 550.2)"> </text><text xml:space="preserve" font-family="Baskerville,Baskerville" font-size="78.0" fill="#276D6D" transform="matrix(1.00, 0.00, -0.00, -1.00, 449.9, 550.2)">w</text><text xml:space="preserve" font-family="Baskerville,Baskerville" font-size="78.0" fill="#276D6D" transform="matrix(1.00, 0.00, -0.00, -1.00, 502.8, 550.2)">i</text><text xml:space="preserve" font-family="Baskerville,Baskerville" font-size="78.0" fill="#276D6D" transform="matrix(1.00, 0.00, -0.00, -1.00, 522.3, 550.2)">t</text><text xml:space="preserve" font-family="Baskerville,Baskerville" font-size="78.0" fill="#276D6D" transform="matrix(1.00, 0.00, -0.00, -1.00, 545.0, 550.2)">h</text><text xml:space="preserve" font-family="Baskerville,Baskerville" font-size="78.0" fill="#276D6D" transform="matrix(1.00, 0.00, -0.00, -1.00, 586.4, 550.2)"> </text><text xml:space="preserve" font-family="Baskerville,Baskerville" font-size="78.0" fill="#276D6D" transform="matrix(1.00, 0.00, -0.00, -1.00, 605.9, 550.2)">E</text><text xml:space="preserve" font-family="Baskerville,Baskerville" font-size="78.0" fill="#276D6D" transform="matrix(1.00, 0.00, -0.00, -1.00, 654.7, 550.2)">l</text><text xml:space="preserve" font-family="Baskerville,Baskerville" font-size="78.0" fill="#276D6D" transform="matrix(1.00, 0.00, -0.00, -1.00, 673.4, 550.2)">m</text><text xml:space="preserve" font-family="Baskerville,Baskerville" font-size="78.0" fill="#276D6D" transform="matrix(1.00, 0.00, -0.00, -1.00, 735.9, 550.2)">:</text><text xml:space="preserve" font-family="Baskerville,Baskerville" font-size="78.0" fill="#276D6D" transform="matrix(1.00, 0.00, -0.00, -1.00, 755.4, 550.2)"> </text><text xml:space="preserve" font-family="Baskerville,Baskerville" font-size="78.0" fill="#276D6D" transform="matrix(1.00, 0.00, -0.00, -1.00, 774.9, 550.2)">A</text><text xml:space="preserve" font-family="Baskerville,Baskerville" font-size="78.0" fill="#276D6D" transform="matrix(1.00, 0.00, -0.00, -1.00, 827.8, 550.2)">n</text><text xml:space="preserve" font-family="Baskerville,Baskerville" font-size="78.0" fill="#276D6D" transform="matrix(1.00, 0.00, -0.00, -1.00, 869.3, 550.2)"> </text><image xlink:href="5905F725F546A9A79F1BD88E1FCDDE88.png" width="840.00" height="65.00" transform="matrix(1.00, 0.00, -0.00, -1.00, 92.0, 518.0)"></image><text xml:space="preserve" font-family="Baskerville,Baskerville" font-size="78.0" fill="#276D6D" transform="matrix(1.00, 0.00, -0.00, -1.00, 95.9, 461.2)">I</text><text xml:space="preserve" font-family="Baskerville,Baskerville" font-size="78.0" fill="#276D6D" transform="matrix(1.00, 0.00, -0.00, -1.00, 123.5, 461.2)">n</text><text xml:space="preserve" font-family="Baskerville,Baskerville" font-size="78.0" fill="#276D6D" transform="matrix(1.00, 0.00, -0.00, -1.00, 165.0, 461.2)">t</text><text xml:space="preserve" font-family="Baskerville,Baskerville" font-size="78.0" fill="#276D6D" transform="matrix(1.00, 0.00, -0.00, -1.00, 187.7, 461.2)">r</text><text xml:space="preserve" font-family="Baskerville,Baskerville" font-size="78.0" fill="#276D6D" transform="matrix(1.00, 0.00, -0.00, -1.00, 214.6, 461.2)">o</text><text xml:space="preserve" font-family="Baskerville,Baskerville" font-size="78.0" fill="#276D6D" transform="matrix(1.00, 0.00, -0.00, -1.00, 253.6, 461.2)">d</text><text xml:space="preserve" font-family="Baskerville,Baskerville" font-size="78.0" fill="#276D6D" transform="matrix(1.00, 0.00, -0.00, -1.00, 294.3, 461.2)">u</text><text xml:space="preserve" font-family="Baskerville,Baskerville" font-size="78.0" fill="#276D6D" transform="matrix(1.00, 0.00, -0.00, -1.00, 334.9, 461.2)">c</text><text xml:space="preserve" font-family="Baskerville,Baskerville" font-size="78.0" fill="#276D6D" transform="matrix(1.00, 0.00, -0.00, -1.00, 368.2, 461.2)">t</text><text xml:space="preserve" font-family="Baskerville,Baskerville" font-size="78.0" fill="#276D6D" transform="matrix(1.00, 0.00, -0.00, -1.00, 390.9, 461.2)">i</text><text xml:space="preserve" font-family="Baskerville,Baskerville" font-size="78.0" fill="#276D6D" transform="matrix(1.00, 0.00, -0.00, -1.00, 410.4, 461.2)">o</text><text xml:space="preserve" font-family="Baskerville,Baskerville" font-size="78.0" fill="#276D6D" transform="matrix(1.00, 0.00, -0.00, -1.00, 449.4, 461.2)">n</text><text xml:space="preserve" font-family="Baskerville,Baskerville" font-size="78.0" fill="#276D6D" transform="matrix(1.00, 0.00, -0.00, -1.00, 490.9, 461.2)"> </text><text xml:space="preserve" font-family="Baskerville,Baskerville" font-size="78.0" fill="#276D6D" transform="matrix(1.00, 0.00, -0.00, -1.00, 510.4, 461.2)">t</text><text xml:space="preserve" font-family="Baskerville,Baskerville" font-size="78.0" fill="#276D6D" transform="matrix(1.00, 0.00, -0.00, -1.00, 533.1, 461.2)">o</text><text xml:space="preserve" font-family="Baskerville,Baskerville" font-size="78.0" fill="#276D6D" transform="matrix(1.00, 0.00, -0.00, -1.00, 572.1, 461.2)"> </text><text xml:space="preserve" font-family="Baskerville,Baskerville" font-size="78.0" fill="#276D6D" transform="matrix(1.00, 0.00, -0.00, -1.00, 591.6, 461.2)">F</text><text xml:space="preserve" font-family="Baskerville,Baskerville" font-size="78.0" fill="#276D6D" transform="matrix(1.00, 0.00, -0.00, -1.00, 634.7, 461.2)">u</text><text xml:space="preserve" font-family="Baskerville,Baskerville" font-size="78.0" fill="#276D6D" transform="matrix(1.00, 0.00, -0.00, -1.00, 675.3, 461.2)">n</text><text xml:space="preserve" font-family="Baskerville,Baskerville" font-size="78.0" fill="#276D6D" transform="matrix(1.00, 0.00, -0.00, -1.00, 716.8, 461.2)">c</text><text xml:space="preserve" font-family="Baskerville,Baskerville" font-size="78.0" fill="#276D6D" transform="matrix(1.00, 0.00, -0.00, -1.00, 750.1, 461.2)">t</text><text xml:space="preserve" font-family="Baskerville,Baskerville" font-size="78.0" fill="#276D6D" transform="matrix(1.00, 0.00, -0.00, -1.00, 772.8, 461.2)">i</text><text xml:space="preserve" font-family="Baskerville,Baskerville" font-size="78.0" fill="#276D6D" transform="matrix(1.00, 0.00, -0.00, -1.00, 792.3, 461.2)">o</text><text xml:space="preserve" font-family="Baskerville,Baskerville" font-size="78.0" fill="#276D6D" transform="matrix(1.00, 0.00, -0.00, -1.00, 831.3, 461.2)">n</text><text xml:space="preserve" font-family="Baskerville,Baskerville" font-size="78.0" fill="#276D6D" transform="matrix(1.00, 0.00, -0.00, -1.00, 872.8, 461.2)">a</text><text xml:space="preserve" font-family="Baskerville,Baskerville" font-size="78.0" fill="#276D6D" transform="matrix(1.00, 0.00, -0.00, -1.00, 909.3, 461.2)">l</text><text xml:space="preserve" font-family="Baskerville,Baskerville" font-size="78.0" fill="#276D6D" transform="matrix(1.00, 0.00, -0.00, -1.00, 928.0, 461.2)"> </text><image xlink:href="1A6DBD3D6479CA74222E534D3DFB60E0.png" width="445.00" height="82.00" transform="matrix(1.00, 0.00, -0.00, -1.00, 291.0, 429.0)"></image><text xml:space="preserve" font-family="Baskerville,Baskerville" font-size="78.0" fill="#276D6D" transform="matrix(1.00, 0.00, -0.00, -1.00, 294.3, 372.2)">P</text><text xml:space="preserve" font-family="Baskerville,Baskerville" font-size="78.0" fill="#276D6D" transform="matrix(1.00, 0.00, -0.00, -1.00, 338.1, 372.2)">r</text><text xml:space="preserve" font-family="Baskerville,Baskerville" font-size="78.0" fill="#276D6D" transform="matrix(1.00, 0.00, -0.00, -1.00, 365.0, 372.2)">o</text><text xml:space="preserve" font-family="Baskerville,Baskerville" font-size="78.0" fill="#276D6D" transform="matrix(1.00, 0.00, -0.00, -1.00, 404.0, 372.2)">g</text><text xml:space="preserve" font-family="Baskerville,Baskerville" font-size="78.0" fill="#276D6D" transform="matrix(1.00, 0.00, -0.00, -1.00, 442.0, 372.2)">r</text><text xml:space="preserve" font-family="Baskerville,Baskerville" font-size="78.0" fill="#276D6D" transform="matrix(1.00, 0.00, -0.00, -1.00, 470.4, 372.2)">a</text><text xml:space="preserve" font-family="Baskerville,Baskerville" font-size="78.0" fill="#276D6D" transform="matrix(1.00, 0.00, -0.00, -1.00, 507.0, 372.2)">m</text><text xml:space="preserve" font-family="Baskerville,Baskerville" font-size="78.0" fill="#276D6D" transform="matrix(1.00, 0.00, -0.00, -1.00, 569.6, 372.2)">m</text><text xml:space="preserve" font-family="Baskerville,Baskerville" font-size="78.0" fill="#276D6D" transform="matrix(1.00, 0.00, -0.00, -1.00, 632.1, 372.2)">i</text><text xml:space="preserve" font-family="Baskerville,Baskerville" font-size="78.0" fill="#276D6D" transform="matrix(1.00, 0.00, -0.00, -1.00, 651.6, 372.2)">n</text><text xml:space="preserve" font-family="Baskerville,Baskerville" font-size="78.0" fill="#276D6D" transform="matrix(1.00, 0.00, -0.00, -1.00, 693.1, 372.2)">g</text><text xml:space="preserve" font-family="HoeflerText-Black,Hoefler Text" font-weight="bold" font-size="40.0" fill="#5E5E5E" transform="matrix(1.00, 0.00, -0.00, -1.00, 280.4, 309.2)">A</text><text xml:space="preserve" font-family="HoeflerText-Black,Hoefler Text" font-weight="bold" font-size="40.0" fill="#5E5E5E" transform="matrix(1.00, 0.00, -0.00, -1.00, 312.3, 309.2)">l</text><text xml:space="preserve" font-family="HoeflerText-Black,Hoefler Text" font-weight="bold" font-size="40.0" fill="#5E5E5E" transform="matrix(1.00, 0.00, -0.00, -1.00, 324.9, 309.2)">e</text><text xml:space="preserve" font-family="HoeflerText-Black,Hoefler Text" font-weight="bold" font-size="40.0" fill="#5E5E5E" transform="matrix(1.00, 0.00, -0.00, -1.00, 346.4, 309.2)">x</text><text xml:space="preserve" font-family="HoeflerText-Black,Hoefler Text" font-weight="bold" font-size="40.0" fill="#5E5E5E" transform="matrix(1.00, 0.00, -0.00, -1.00, 369.6, 309.2)"> </text><text xml:space="preserve" font-family="HoeflerText-Black,Hoefler Text" font-weight="bold" font-size="40.0" fill="#5E5E5E" transform="matrix(1.00, 0.00, -0.00, -1.00, 377.8, 309.2)">S</text><text xml:space="preserve" font-family="HoeflerText-Black,Hoefler Text" font-weight="bold" font-size="40.0" fill="#5E5E5E" transform="matrix(1.00, 0.00, -0.00, -1.00, 404.7, 309.2)">i</text><text xml:space="preserve" font-family="HoeflerText-Black,Hoefler Text" font-weight="bold" font-size="40.0" fill="#5E5E5E" transform="matrix(1.00, 0.00, -0.00, -1.00, 417.8, 309.2)">m</text><text xml:space="preserve" font-family="HoeflerText-Black,Hoefler Text" font-weight="bold" font-size="40.0" fill="#5E5E5E" transform="matrix(1.00, 0.00, -0.00, -1.00, 456.0, 309.2)">o</text><text xml:space="preserve" font-family="HoeflerText-Black,Hoefler Text" font-weight="bold" font-size="40.0" fill="#5E5E5E" transform="matrix(1.00, 0.00, -0.00, -1.00, 479.8, 309.2)">n</text><text xml:space="preserve" font-family="HoeflerText-Black,Hoefler Text" font-weight="bold" font-size="40.0" fill="#5E5E5E" transform="matrix(1.00, 0.00, -0.00, -1.00, 504.8, 309.2)">i</text><text xml:space="preserve" font-family="HoeflerText-Black,Hoefler Text" font-weight="bold" font-size="40.0" fill="#5E5E5E" transform="matrix(1.00, 0.00, -0.00, -1.00, 518.4, 309.2)">a</text><text xml:space="preserve" font-family="HoeflerText-Black,Hoefler Text" font-weight="bold" font-size="40.0" fill="#5E5E5E" transform="matrix(1.00, 0.00, -0.00, -1.00, 539.7, 309.2)">n</text><text xml:space="preserve" font-family="HoeflerText-Black,Hoefler Text" font-weight="bold" font-size="40.0" fill="#5E5E5E" transform="matrix(1.00, 0.00, -0.00, -1.00, 564.8, 309.2)"> </text><text xml:space="preserve" font-family="HoeflerText-Black,Hoefler Text" font-weight="bold" font-size="40.0" fill="#5E5E5E" transform="matrix(1.00, 0.00, -0.00, -1.00, 573.0, 309.2)"> </text><text xml:space="preserve" font-family="HoeflerText-Black,Hoefler Text" font-weight="bold" font-size="40.0" fill="#5E5E5E" transform="matrix(1.00, 0.00, -0.00, -1.00, 581.2, 309.2)">5</text><text xml:space="preserve" font-family="HoeflerText-Black,Hoefler Text" font-weight="bold" font-size="40.0" fill="#5E5E5E" transform="matrix(1.00, 0.00, -0.00, -1.00, 601.5, 309.2)">-</text><text xml:space="preserve" font-family="HoeflerText-Black,Hoefler Text" font-weight="bold" font-size="40.0" fill="#5E5E5E" transform="matrix(1.00, 0.00, -0.00, -1.00, 618.0, 309.2)">1</text><text xml:space="preserve" font-family="HoeflerText-Black,Hoefler Text" font-weight="bold" font-size="40.0" fill="#5E5E5E" transform="matrix(1.00, 0.00, -0.00, -1.00, 637.0, 309.2)">8</text><text xml:space="preserve" font-family="HoeflerText-Black,Hoefler Text" font-weight="bold" font-size="40.0" fill="#5E5E5E" transform="matrix(1.00, 0.00, -0.00, -1.00, 660.0, 309.2)">-</text><text xml:space="preserve" font-family="HoeflerText-Black,Hoefler Text" font-weight="bold" font-size="40.0" fill="#5E5E5E" transform="matrix(1.00, 0.00, -0.00, -1.00, 676.5, 309.2)">2</text><text xml:space="preserve" font-family="HoeflerText-Black,Hoefler Text" font-weight="bold" font-size="40.0" fill="#5E5E5E" transform="matrix(1.00, 0.00, -0.00, -1.00, 697.2, 309.2)">0</text><text xml:space="preserve" font-family="HoeflerText-Black,Hoefler Text" font-weight="bold" font-size="40.0" fill="#5E5E5E" transform="matrix(1.00, 0.00, -0.00, -1.00, 721.8, 309.2)">1</text><text xml:space="preserve" font-family="HoeflerText-Black,Hoefler Text" font-weight="bold" font-size="40.0" fill="#5E5E5E" transform="matrix(1.00, 0.00, -0.00, -1.00, 740.8, 309.2)">7</text><g><clipPath id="clip0x7f849b2aba40"><path d="M 166.0 269.0 L 563.0 269.0 L 563.0 107.0 L 166.0 107.0 Z M 165.9 269.2 "></path></clipPath><g clip-path="url(#clip0x7f849b2aba40)"><g><clipPath id="clip0x7f849b2ac080"><path d="M 207.6 269.0 C 186.4 269.2 168.9 269.0 168.9 268.7 C 168.9 268.4 177.1 260.1 187.1 250.3 L 205.2 232.0 L 244.2 232.0 L 283.3 232.0 L 264.8 250.7 L 246.3 269.0 L 207.6 269.0 Z M 252.3 269.0 L 290.3 231.3 C 311.1 210.4 328.3 193.4 328.5 193.4 C 328.6 193.4 329.0 210.4 329.0 231.3 L 329.0 269.0 L 290.5 269.0 L 252.3 269.0 Z M 165.9 265.7 L 166.0 188.4 L 166.0 111.1 L 204.6 149.7 L 243.3 188.4 L 204.6 227.0 L 165.9 265.7 Z M 432.5 248.0 L 433.0 201.6 C 433.2 176.2 433.0 163.6 433.8 157.0 C 433.8 156.8 433.8 156.6 433.8 156.4 C 433.8 156.4 433.8 156.4 433.8 156.4 C 434.3 153.2 434.9 151.4 435.9 150.3 C 436.4 149.7 436.9 149.3 437.6 149.0 C 438.3 148.6 439.0 148.3 439.9 147.9 C 440.5 147.6 441.4 147.4 442.4 147.3 C 442.7 147.2 443.0 147.2 443.3 147.2 C 443.8 147.1 444.3 147.1 444.9 147.1 C 446.5 147.0 448.1 147.0 449.4 147.2 C 450.3 147.4 451.0 147.6 451.3 147.9 C 451.5 148.1 451.3 150.1 451.0 152.3 C 450.6 154.5 450.1 155.7 449.4 156.2 C 449.2 156.4 448.9 156.4 448.6 156.4 C 448.1 156.4 447.7 156.5 447.3 156.6 C 447.3 156.6 447.3 156.6 447.3 156.6 C 446.9 156.7 446.6 156.9 446.3 157.3 C 445.7 158.1 445.4 159.6 445.1 162.6 C 444.6 168.6 445.0 180.4 445.0 203.5 L 445.0 248.0 L 438.5 248.0 L 432.5 248.0 Z M 285.3 229.3 C 276.8 229.6 209.3 229.1 209.0 228.7 C 208.7 228.4 216.8 219.9 226.9 209.8 C 232.0 204.7 236.7 200.1 240.3 196.8 C 242.1 195.1 243.7 193.8 244.8 192.8 C 245.9 191.9 246.6 191.4 246.8 191.4 C 247.2 191.4 250.0 193.7 253.8 197.3 C 265.2 207.9 286.5 229.3 285.3 229.3 Z M 288.8 226.8 L 269.1 207.2 L 249.5 187.6 L 268.4 168.6 C 273.6 163.3 278.4 158.6 282.0 155.1 C 285.6 151.7 288.0 149.5 288.3 149.5 C 288.6 149.5 291.0 151.7 294.6 155.1 C 298.3 158.6 303.2 163.4 308.5 168.7 L 327.7 187.9 L 308.2 207.3 L 288.8 226.8 Z M 389.1 218.3 C 384.9 218.3 380.8 217.3 377.0 215.6 C 373.3 213.8 369.8 211.2 367.0 208.0 C 365.1 205.8 363.4 203.3 362.1 200.6 C 361.4 199.3 360.9 198.2 360.5 197.2 C 359.3 194.0 359.2 191.2 359.2 182.4 C 359.2 179.4 359.2 177.1 359.3 175.2 C 359.4 171.5 359.7 169.7 360.6 167.5 C 361.0 166.5 361.6 165.3 362.4 163.8 C 364.7 159.3 367.4 155.9 370.9 153.3 C 372.6 152.0 374.5 151.0 376.6 150.1 C 378.7 149.2 381.1 148.4 383.6 147.9 C 390.8 146.3 391.5 146.3 397.8 147.6 C 402.9 148.7 413.6 153.2 413.6 154.2 C 413.6 154.9 409.5 161.4 409.1 161.4 C 408.9 161.4 407.2 160.5 405.3 159.4 C 401.1 157.0 393.6 155.9 387.1 156.9 C 385.4 157.2 383.8 157.8 382.1 158.7 C 381.3 159.2 380.5 159.7 379.8 160.3 C 379.8 160.3 379.7 160.3 379.7 160.3 C 379.0 160.9 378.2 161.5 377.5 162.3 C 376.8 163.0 376.1 163.8 375.5 164.6 C 374.2 166.2 373.1 168.0 372.2 169.9 C 372.2 169.9 372.2 169.9 372.2 169.9 C 371.8 170.8 371.4 171.8 371.1 172.8 C 370.7 174.3 370.4 175.8 370.2 177.0 C 370.0 178.2 370.0 179.1 370.2 179.4 C 370.5 180.0 379.1 180.0 393.2 180.0 L 416.0 180.0 L 416.0 188.3 C 416.0 190.7 415.4 192.9 415.1 195.0 C 414.8 197.1 414.4 199.1 413.8 200.9 C 410.2 212.0 401.5 218.3 389.1 218.3 Z M 501.0 218.3 C 495.4 218.1 489.5 215.9 484.7 211.9 C 482.8 210.2 481.2 209.6 480.2 209.8 C 479.9 209.8 479.6 210.0 479.4 210.1 C 478.8 210.7 478.5 211.7 478.5 213.3 C 478.5 214.0 478.5 214.6 478.4 215.0 C 478.4 215.0 478.4 215.0 478.4 215.0 C 478.3 215.4 478.1 215.7 477.8 215.9 C 477.5 216.1 477.1 216.2 476.4 216.3 C 476.4 216.3 476.4 216.3 476.3 216.3 C 475.6 216.3 474.7 216.0 473.5 216.0 L 469.0 216.0 L 469.0 182.4 L 469.0 148.0 L 474.5 148.0 L 481.0 148.0 L 481.0 173.3 L 481.0 198.1 L 484.4 201.7 C 487.2 204.2 489.7 205.9 492.1 207.0 C 493.7 207.8 495.3 208.2 496.8 208.3 C 497.5 208.4 498.3 208.4 499.0 208.3 C 500.5 208.1 501.9 207.6 503.4 206.9 C 504.9 206.1 506.0 205.4 506.9 204.2 C 506.9 204.2 506.9 204.2 506.9 204.2 C 509.5 200.7 509.7 193.6 510.0 173.2 L 511.0 148.0 L 516.0 148.0 L 521.0 148.0 L 521.0 172.9 L 521.0 197.3 L 525.6 201.3 C 531.2 206.7 535.7 208.7 540.7 208.0 C 542.7 207.8 544.3 207.0 545.8 206.0 C 546.1 205.7 546.5 205.5 546.9 205.2 C 548.5 203.7 549.6 201.6 550.3 198.8 C 550.9 196.3 551.0 184.9 551.0 171.5 L 551.0 148.0 L 556.9 148.0 L 562.0 148.0 L 563.0 171.7 C 563.3 197.4 562.3 203.9 559.1 209.8 C 556.2 215.0 549.9 218.3 542.8 218.3 C 539.6 218.3 536.8 217.9 534.1 216.7 C 531.3 215.5 528.5 213.7 525.0 210.8 C 522.2 208.6 520.9 207.5 520.0 207.2 C 519.6 207.0 519.4 207.1 519.1 207.4 C 518.9 207.6 518.7 208.0 518.5 208.6 C 518.0 209.8 516.6 211.9 515.4 213.2 C 513.7 215.0 511.5 216.4 509.0 217.2 C 507.8 217.6 506.5 218.0 505.2 218.1 C 503.8 218.3 502.4 218.4 501.0 218.3 Z M 388.4 209.0 C 393.8 209.4 399.1 207.4 402.2 202.7 C 404.1 199.6 406.8 189.5 406.0 188.2 C 405.3 187.1 370.9 187.1 370.3 188.2 C 369.4 189.7 371.4 196.4 374.0 200.3 C 377.5 205.6 383.0 208.5 388.4 209.0 Z M 246.9 184.8 L 207.8 145.7 L 168.7 107.0 L 246.9 107.0 L 325.2 107.0 L 286.1 145.7 L 246.9 184.8 Z M 328.9 183.4 C 328.5 183.4 319.7 174.9 309.2 164.4 L 290.3 145.5 L 309.2 126.5 C 319.7 116.1 328.5 107.6 328.9 107.6 C 329.4 107.6 329.7 124.6 329.7 145.5 C 329.7 166.3 329.4 183.4 328.9 183.4 Z M 328.9 183.4 "></path></clipPath><g clip-path="url(#clip0x7f849b2ac080)"><image xlink:href="BF3F8731E8F7613403BC90B2CC5978C0.png" width="720.00" height="290.00" transform="matrix(0.70, 0.00, -0.00, -0.70, 109.0, 290.0)"></image></g></g></g></g><g><clipPath id="clip0x7f849b2ade80"><path d="M 648.0 274.0 L 829.0 274.0 L 829.0 78.0 L 648.0 78.0 Z M 648.0 274.2 "></path></clipPath><g clip-path="url(#clip0x7f849b2ade80)"><g><clipPath id="clip0x7f849b2acc00"><path d="M 784.0 94.0 L 784.0 110.6 L 769.3 124.7 L 754.6 139.0 L 779.9 139.0 L 805.0 139.0 L 805.0 115.1 L 805.0 91.4 L 811.7 84.6 L 818.5 78.0 L 801.3 78.0 L 784.0 78.0 L 784.0 94.0 M 648.0 105.0 L 648.0 122.0 L 663.3 122.0 L 678.5 122.0 L 668.8 112.0 C 662.2 105.4 659.3 101.9 660.0 101.2 C 660.7 100.5 658.9 98.1 654.5 93.7 L 648.0 87.3 L 648.0 105.0 M 683.0 121.2 L 700.5 139.0 L 717.5 139.0 L 734.5 139.0 L 717.0 121.2 L 699.6 104.0 L 682.6 104.0 L 665.6 104.0 L 683.0 121.2 M 721.0 143.0 L 701.9 143.0 L 726.6 167.0 C 740.2 180.3 751.6 191.4 751.9 191.5 C 752.3 191.6 763.8 180.5 777.5 166.8 L 802.5 142.0 L 771.0 142.0 C 753.7 142.1 731.1 142.3 720.7 142.5 M 754.0 195.2 L 729.6 220.0 L 779.0 220.0 L 828.5 220.0 L 804.0 195.2 C 790.6 181.8 779.3 170.8 779.0 170.8 C 778.8 170.8 767.5 181.8 754.0 195.2 M 766.3 237.0 L 754.0 249.3 L 766.5 261.7 L 779.0 274.2 L 791.5 261.7 L 804.0 249.3 L 791.8 237.0 C 785.1 230.3 779.3 224.8 779.0 224.8 C 778.7 224.8 773.0 230.3 766.3 237.0 "></path></clipPath><g clip-path="url(#clip0x7f849b2acc00)"><image xlink:href="CDDFBBC0F0D1C4087EAE510A3E44887B.png" width="237.00" height="213.00" transform="matrix(1.00, 0.00, -0.00, -1.00, 620.0, 286.0)"></image></g></g></g></g><text xml:space="preserve" font-family="HoeflerText-Black,Hoefler Text" font-weight="bold" font-size="30.0" fill="#5E5E5E" transform="matrix(1.00, 0.00, -0.00, -1.00, 259.5, 57.7)">S</text><text xml:space="preserve" font-family="HoeflerText-Black,Hoefler Text" font-weight="bold" font-size="30.0" fill="#5E5E5E" transform="matrix(1.00, 0.00, -0.00, -1.00, 279.7, 57.7)">p</text><text xml:space="preserve" font-family="HoeflerText-Black,Hoefler Text" font-weight="bold" font-size="30.0" fill="#5E5E5E" transform="matrix(1.00, 0.00, -0.00, -1.00, 298.4, 57.7)">e</text><text xml:space="preserve" font-family="HoeflerText-Black,Hoefler Text" font-weight="bold" font-size="30.0" fill="#5E5E5E" transform="matrix(1.00, 0.00, -0.00, -1.00, 314.6, 57.7)">c</text><text xml:space="preserve" font-family="HoeflerText-Black,Hoefler Text" font-weight="bold" font-size="30.0" fill="#5E5E5E" transform="matrix(1.00, 0.00, -0.00, -1.00, 330.2, 57.7)">i</text><text xml:space="preserve" font-family="HoeflerText-Black,Hoefler Text" font-weight="bold" font-size="30.0" fill="#5E5E5E" transform="matrix(1.00, 0.00, -0.00, -1.00, 340.4, 57.7)">a</text><text xml:space="preserve" font-family="HoeflerText-Black,Hoefler Text" font-weight="bold" font-size="30.0" fill="#5E5E5E" transform="matrix(1.00, 0.00, -0.00, -1.00, 356.4, 57.7)">l</text><text xml:space="preserve" font-family="HoeflerText-Black,Hoefler Text" font-weight="bold" font-size="30.0" fill="#5E5E5E" transform="matrix(1.00, 0.00, -0.00, -1.00, 365.9, 57.7)"> </text><text xml:space="preserve" font-family="HoeflerText-Black,Hoefler Text" font-weight="bold" font-size="30.0" fill="#5E5E5E" transform="matrix(1.00, 0.00, -0.00, -1.00, 372.0, 57.7)">t</text><text xml:space="preserve" font-family="HoeflerText-Black,Hoefler Text" font-weight="bold" font-size="30.0" fill="#5E5E5E" transform="matrix(1.00, 0.00, -0.00, -1.00, 384.8, 57.7)">h</text><text xml:space="preserve" font-family="HoeflerText-Black,Hoefler Text" font-weight="bold" font-size="30.0" fill="#5E5E5E" transform="matrix(1.00, 0.00, -0.00, -1.00, 403.3, 57.7)">a</text><text xml:space="preserve" font-family="HoeflerText-Black,Hoefler Text" font-weight="bold" font-size="30.0" fill="#5E5E5E" transform="matrix(1.00, 0.00, -0.00, -1.00, 419.4, 57.7)">n</text><text xml:space="preserve" font-family="HoeflerText-Black,Hoefler Text" font-weight="bold" font-size="30.0" fill="#5E5E5E" transform="matrix(1.00, 0.00, -0.00, -1.00, 438.1, 57.7)">k</text><text xml:space="preserve" font-family="HoeflerText-Black,Hoefler Text" font-weight="bold" font-size="30.0" fill="#5E5E5E" transform="matrix(1.00, 0.00, -0.00, -1.00, 456.9, 57.7)">s</text><text xml:space="preserve" font-family="HoeflerText-Black,Hoefler Text" font-weight="bold" font-size="30.0" fill="#5E5E5E" transform="matrix(1.00, 0.00, -0.00, -1.00, 471.2, 57.7)"> </text><text xml:space="preserve" font-family="HoeflerText-Black,Hoefler Text" font-weight="bold" font-size="30.0" fill="#5E5E5E" transform="matrix(1.00, 0.00, -0.00, -1.00, 477.3, 57.7)">t</text><text xml:space="preserve" font-family="HoeflerText-Black,Hoefler Text" font-weight="bold" font-size="30.0" fill="#5E5E5E" transform="matrix(1.00, 0.00, -0.00, -1.00, 489.7, 57.7)">o</text><text xml:space="preserve" font-family="HoeflerText-Black,Hoefler Text" font-weight="bold" font-size="30.0" fill="#5E5E5E" transform="matrix(1.00, 0.00, -0.00, -1.00, 507.5, 57.7)"> </text><text xml:space="preserve" font-family="HoeflerText-Black,Hoefler Text" font-weight="bold" font-size="30.0" fill="#5E5E5E" transform="matrix(1.00, 0.00, -0.00, -1.00, 512.2, 57.7)">A</text><text xml:space="preserve" font-family="HoeflerText-Black,Hoefler Text" font-weight="bold" font-size="30.0" fill="#5E5E5E" transform="matrix(1.00, 0.00, -0.00, -1.00, 536.1, 57.7)">n</text><text xml:space="preserve" font-family="HoeflerText-Black,Hoefler Text" font-weight="bold" font-size="30.0" fill="#5E5E5E" transform="matrix(1.00, 0.00, -0.00, -1.00, 554.9, 57.7)">d</text><text xml:space="preserve" font-family="HoeflerText-Black,Hoefler Text" font-weight="bold" font-size="30.0" fill="#5E5E5E" transform="matrix(1.00, 0.00, -0.00, -1.00, 573.3, 57.7)">e</text><text xml:space="preserve" font-family="HoeflerText-Black,Hoefler Text" font-weight="bold" font-size="30.0" fill="#5E5E5E" transform="matrix(1.00, 0.00, -0.00, -1.00, 589.4, 57.7)">r</text><text xml:space="preserve" font-family="HoeflerText-Black,Hoefler Text" font-weight="bold" font-size="30.0" fill="#5E5E5E" transform="matrix(1.00, 0.00, -0.00, -1.00, 603.5, 57.7)">s</text><text xml:space="preserve" font-family="HoeflerText-Black,Hoefler Text" font-weight="bold" font-size="30.0" fill="#5E5E5E" transform="matrix(1.00, 0.00, -0.00, -1.00, 617.8, 57.7)">o</text><text xml:space="preserve" font-family="HoeflerText-Black,Hoefler Text" font-weight="bold" font-size="30.0" fill="#5E5E5E" transform="matrix(1.00, 0.00, -0.00, -1.00, 635.6, 57.7)">n</text><text xml:space="preserve" font-family="HoeflerText-Black,Hoefler Text" font-weight="bold" font-size="30.0" fill="#5E5E5E" transform="matrix(1.00, 0.00, -0.00, -1.00, 654.4, 57.7)"> </text><text xml:space="preserve" font-family="HoeflerText-Black,Hoefler Text" font-weight="bold" font-size="30.0" fill="#5E5E5E" transform="matrix(1.00, 0.00, -0.00, -1.00, 660.5, 57.7)">C</text><text xml:space="preserve" font-family="HoeflerText-Black,Hoefler Text" font-weight="bold" font-size="30.0" fill="#5E5E5E" transform="matrix(1.00, 0.00, -0.00, -1.00, 684.0, 57.7)">o</text><text xml:space="preserve" font-family="HoeflerText-Black,Hoefler Text" font-weight="bold" font-size="30.0" fill="#5E5E5E" transform="matrix(1.00, 0.00, -0.00, -1.00, 701.9, 57.7)">o</text><text xml:space="preserve" font-family="HoeflerText-Black,Hoefler Text" font-weight="bold" font-size="30.0" fill="#5E5E5E" transform="matrix(1.00, 0.00, -0.00, -1.00, 719.7, 57.7)">k</text></g></svg>