<?xml version="1.0" encoding="UTF-8" standalone="no"?><svg xmlns="http://www.w3.org/2000/svg" xmlns:xlink="http://www.w3.org/1999/xlink" clip-rule="evenodd" stroke-miterlimit="10" viewBox="0 0 1024 768"><desc>SVG generated by Keynote</desc><defs></defs><g transform="matrix(1.00, 0.00, -0.00, -1.00, 0.0, 768.0)"><g><clipPath id="clip0x7f849a3721f0"><path d="M 0.0 768.0 L 1024.0 768.0 L 1024.0 0.0 L 0.0 0.0 Z M 0.0 768.0 "></path></clipPath><g clip-path="url(#clip0x7f849a3721f0)"><image xlink:href="../../C667F2AE-898B-45BB-A62C-D7DBF1FCC302/assets/16FCC1994AC46CEBE0A3ED4AD69C42B7.jpeg" width="2048.00" height="1536.00" transform="matrix(0.50, 0.00, -0.00, -0.50, 0.0, 768.0)"></image></g></g><image xlink:href="../../18E0B0E5-272E-4DBA-AB3C-A28DBC930C74/assets/FABFCDB0037B0F4A5F9FE94FA1496C58.png" width="653.00" height="65.00" transform="matrix(1.00, 0.00, -0.00, -1.00, 185.0, 683.0)"></image><text xml:space="preserve" font-family="Baskerville,Baskerville" font-size="78.0" fill="#767366" transform="matrix(1.00, 0.00, -0.00, -1.00, 188.1, 626.2)">P</text><text xml:space="preserve" font-family="Baskerville,Baskerville" font-size="78.0" fill="#767366" transform="matrix(1.00, 0.00, -0.00, -1.00, 231.9, 626.2)">u</text><text xml:space="preserve" font-family="Baskerville,Baskerville" font-size="78.0" fill="#767366" transform="matrix(1.00, 0.00, -0.00, -1.00, 272.5, 626.2)">r</text><text xml:space="preserve" font-family="Baskerville,Baskerville" font-size="78.0" fill="#767366" transform="matrix(1.00, 0.00, -0.00, -1.00, 300.2, 626.2)">e</text><text xml:space="preserve" font-family="Baskerville,Baskerville" font-size="78.0" fill="#767366" transform="matrix(1.00, 0.00, -0.00, -1.00, 334.3, 626.2)"> </text><text xml:space="preserve" font-family="Baskerville,Baskerville" font-size="78.0" fill="#767366" transform="matrix(1.00, 0.00, -0.00, -1.00, 353.8, 626.2)">a</text><text xml:space="preserve" font-family="Baskerville,Baskerville" font-size="78.0" fill="#767366" transform="matrix(1.00, 0.00, -0.00, -1.00, 390.3, 626.2)">n</text><text xml:space="preserve" font-family="Baskerville,Baskerville" font-size="78.0" fill="#767366" transform="matrix(1.00, 0.00, -0.00, -1.00, 431.8, 626.2)">d</text><text xml:space="preserve" font-family="Baskerville,Baskerville" font-size="78.0" fill="#767366" transform="matrix(1.00, 0.00, -0.00, -1.00, 472.4, 626.2)"> </text><text xml:space="preserve" font-family="Baskerville,Baskerville" font-size="78.0" fill="#767366" transform="matrix(1.00, 0.00, -0.00, -1.00, 491.9, 626.2)">I</text><text xml:space="preserve" font-family="Baskerville,Baskerville" font-size="78.0" fill="#767366" transform="matrix(1.00, 0.00, -0.00, -1.00, 519.5, 626.2)">m</text><text xml:space="preserve" font-family="Baskerville,Baskerville" font-size="78.0" fill="#767366" transform="matrix(1.00, 0.00, -0.00, -1.00, 582.1, 626.2)">m</text><text xml:space="preserve" font-family="Baskerville,Baskerville" font-size="78.0" fill="#767366" transform="matrix(1.00, 0.00, -0.00, -1.00, 643.2, 626.2)">u</text><text xml:space="preserve" font-family="Baskerville,Baskerville" font-size="78.0" fill="#767366" transform="matrix(1.00, 0.00, -0.00, -1.00, 683.9, 626.2)">t</text><text xml:space="preserve" font-family="Baskerville,Baskerville" font-size="78.0" fill="#767366" transform="matrix(1.00, 0.00, -0.00, -1.00, 706.6, 626.2)">a</text><text xml:space="preserve" font-family="Baskerville,Baskerville" font-size="78.0" fill="#767366" transform="matrix(1.00, 0.00, -0.00, -1.00, 743.1, 626.2)">b</text><text xml:space="preserve" font-family="Baskerville,Baskerville" font-size="78.0" fill="#767366" transform="matrix(1.00, 0.00, -0.00, -1.00, 783.0, 626.2)">l</text><text xml:space="preserve" font-family="Baskerville,Baskerville" font-size="78.0" fill="#767366" transform="matrix(1.00, 0.00, -0.00, -1.00, 801.7, 626.2)">e</text><image xlink:href="../../FBD3513B-5D89-453E-99BA-D200804B808B/assets/4649ECBEA101B632BCD7982D72D05599.png" width="172.00" height="66.00" transform="matrix(1.67, 0.00, -0.00, -1.68, 125.0, 538.0)"></image><image xlink:href="../../18E0B0E5-272E-4DBA-AB3C-A28DBC930C74/assets/8B2842CDDCD1B24FCBFDA0F5765D8B09.jpeg" width="250.00" height="200.00" transform="matrix(1.00, 0.00, -0.00, -1.00, 631.0, 582.0)"></image><image xlink:href="../../18E0B0E5-272E-4DBA-AB3C-A28DBC930C74/assets/7FB46342DD027C61F3532A55406F19FB.png" width="524.00" height="140.00" transform="matrix(0.96, 0.00, -0.00, -0.96, 64.0, 360.0)"></image><image xlink:href="../../18E0B0E5-272E-4DBA-AB3C-A28DBC930C74/assets/4265EACF9710E0C5C3AAA8108358BEA7.png" width="608.00" height="236.00" transform="matrix(0.83, 0.00, -0.00, -0.83, 66.0, 220.0)"></image><text xml:space="preserve" font-family="HoeflerText-Black,Hoefler Text" font-weight="bold" font-size="36.0" fill="#5E5E5E" transform="matrix(1.00, 0.00, -0.00, -1.00, 627.5, 293.9)">P</text><text xml:space="preserve" font-family="HoeflerText-Black,Hoefler Text" font-weight="bold" font-size="36.0" fill="#5E5E5E" transform="matrix(1.00, 0.00, -0.00, -1.00, 654.4, 293.9)">y</text><text xml:space="preserve" font-family="HoeflerText-Black,Hoefler Text" font-weight="bold" font-size="36.0" fill="#5E5E5E" transform="matrix(1.00, 0.00, -0.00, -1.00, 674.0, 293.9)">t</text><text xml:space="preserve" font-family="HoeflerText-Black,Hoefler Text" font-weight="bold" font-size="36.0" fill="#5E5E5E" transform="matrix(1.00, 0.00, -0.00, -1.00, 689.4, 293.9)">h</text><text xml:space="preserve" font-family="HoeflerText-Black,Hoefler Text" font-weight="bold" font-size="36.0" fill="#5E5E5E" transform="matrix(1.00, 0.00, -0.00, -1.00, 711.6, 293.9)">o</text><text xml:space="preserve" font-family="HoeflerText-Black,Hoefler Text" font-weight="bold" font-size="36.0" fill="#5E5E5E" transform="matrix(1.00, 0.00, -0.00, -1.00, 733.0, 293.9)">n</text><text xml:space="preserve" font-family="HoeflerText-Black,Hoefler Text" font-weight="bold" font-size="36.0" fill="#5E5E5E" transform="matrix(1.00, 0.00, -0.00, -1.00, 755.6, 293.9)"> </text><text xml:space="preserve" font-family="HoeflerText-Black,Hoefler Text" font-weight="bold" font-size="36.0" fill="#5E5E5E" transform="matrix(1.00, 0.00, -0.00, -1.00, 763.0, 293.9)">(</text><text xml:space="preserve" font-family="HoeflerText-Black,Hoefler Text" font-weight="bold" font-size="36.0" fill="#5E5E5E" transform="matrix(1.00, 0.00, -0.00, -1.00, 777.0, 293.9)">m</text><text xml:space="preserve" font-family="HoeflerText-Black,Hoefler Text" font-weight="bold" font-size="36.0" fill="#5E5E5E" transform="matrix(1.00, 0.00, -0.00, -1.00, 811.3, 293.9)">u</text><text xml:space="preserve" font-family="HoeflerText-Black,Hoefler Text" font-weight="bold" font-size="36.0" fill="#5E5E5E" transform="matrix(1.00, 0.00, -0.00, -1.00, 833.9, 293.9)">t</text><text xml:space="preserve" font-family="HoeflerText-Black,Hoefler Text" font-weight="bold" font-size="36.0" fill="#5E5E5E" transform="matrix(1.00, 0.00, -0.00, -1.00, 849.2, 293.9)">a</text><text xml:space="preserve" font-family="HoeflerText-Black,Hoefler Text" font-weight="bold" font-size="36.0" fill="#5E5E5E" transform="matrix(1.00, 0.00, -0.00, -1.00, 868.5, 293.9)">b</text><text xml:space="preserve" font-family="HoeflerText-Black,Hoefler Text" font-weight="bold" font-size="36.0" fill="#5E5E5E" transform="matrix(1.00, 0.00, -0.00, -1.00, 890.3, 293.9)">l</text><text xml:space="preserve" font-family="HoeflerText-Black,Hoefler Text" font-weight="bold" font-size="36.0" fill="#5E5E5E" transform="matrix(1.00, 0.00, -0.00, -1.00, 901.6, 293.9)">e</text><text xml:space="preserve" font-family="HoeflerText-Black,Hoefler Text" font-weight="bold" font-size="36.0" fill="#5E5E5E" transform="matrix(1.00, 0.00, -0.00, -1.00, 921.0, 293.9)">)</text><text xml:space="preserve" font-family="HoeflerText-Black,Hoefler Text" font-weight="bold" font-size="36.0" fill="#5E5E5E" transform="matrix(1.00, 0.00, -0.00, -1.00, 631.9, 111.1)">E</text><text xml:space="preserve" font-family="HoeflerText-Black,Hoefler Text" font-weight="bold" font-size="36.0" fill="#5E5E5E" transform="matrix(1.00, 0.00, -0.00, -1.00, 659.4, 111.1)">l</text><text xml:space="preserve" font-family="HoeflerText-Black,Hoefler Text" font-weight="bold" font-size="36.0" fill="#5E5E5E" transform="matrix(1.00, 0.00, -0.00, -1.00, 670.8, 111.1)">m</text><text xml:space="preserve" font-family="HoeflerText-Black,Hoefler Text" font-weight="bold" font-size="36.0" fill="#5E5E5E" transform="matrix(1.00, 0.00, -0.00, -1.00, 705.1, 111.1)"> </text><text xml:space="preserve" font-family="HoeflerText-Black,Hoefler Text" font-weight="bold" font-size="36.0" fill="#5E5E5E" transform="matrix(1.00, 0.00, -0.00, -1.00, 712.4, 111.1)">(</text><text xml:space="preserve" font-family="HoeflerText-Black,Hoefler Text" font-weight="bold" font-size="36.0" fill="#5E5E5E" transform="matrix(1.00, 0.00, -0.00, -1.00, 726.5, 111.1)">i</text><text xml:space="preserve" font-family="HoeflerText-Black,Hoefler Text" font-weight="bold" font-size="36.0" fill="#5E5E5E" transform="matrix(1.00, 0.00, -0.00, -1.00, 738.4, 111.1)">m</text><text xml:space="preserve" font-family="HoeflerText-Black,Hoefler Text" font-weight="bold" font-size="36.0" fill="#5E5E5E" transform="matrix(1.00, 0.00, -0.00, -1.00, 772.7, 111.1)">m</text><text xml:space="preserve" font-family="HoeflerText-Black,Hoefler Text" font-weight="bold" font-size="36.0" fill="#5E5E5E" transform="matrix(1.00, 0.00, -0.00, -1.00, 807.0, 111.1)">u</text><text xml:space="preserve" font-family="HoeflerText-Black,Hoefler Text" font-weight="bold" font-size="36.0" fill="#5E5E5E" transform="matrix(1.00, 0.00, -0.00, -1.00, 829.5, 111.1)">t</text><text xml:space="preserve" font-family="HoeflerText-Black,Hoefler Text" font-weight="bold" font-size="36.0" fill="#5E5E5E" transform="matrix(1.00, 0.00, -0.00, -1.00, 844.9, 111.1)">a</text><text xml:space="preserve" font-family="HoeflerText-Black,Hoefler Text" font-weight="bold" font-size="36.0" fill="#5E5E5E" transform="matrix(1.00, 0.00, -0.00, -1.00, 864.1, 111.1)">b</text><text xml:space="preserve" font-family="HoeflerText-Black,Hoefler Text" font-weight="bold" font-size="36.0" fill="#5E5E5E" transform="matrix(1.00, 0.00, -0.00, -1.00, 885.9, 111.1)">l</text><text xml:space="preserve" font-family="HoeflerText-Black,Hoefler Text" font-weight="bold" font-size="36.0" fill="#5E5E5E" transform="matrix(1.00, 0.00, -0.00, -1.00, 897.2, 111.1)">e</text><text xml:space="preserve" font-family="HoeflerText-Black,Hoefler Text" font-weight="bold" font-size="36.0" fill="#5E5E5E" transform="matrix(1.00, 0.00, -0.00, -1.00, 916.6, 111.1)">)</text></g></svg>