<?xml version="1.0" encoding="UTF-8" standalone="no"?><svg xmlns="http://www.w3.org/2000/svg" xmlns:xlink="http://www.w3.org/1999/xlink" clip-rule="evenodd" stroke-miterlimit="10" viewBox="0 0 1024 768"><desc>SVG generated by Keynote</desc><defs></defs><g transform="matrix(1.00, 0.00, -0.00, -1.00, 0.0, 768.0)"><g><clipPath id="clip0x7f8494ab0120"><path d="M 0.0 768.0 L 1024.0 768.0 L 1024.0 0.0 L 0.0 0.0 Z M 0.0 768.0 "></path></clipPath><g clip-path="url(#clip0x7f8494ab0120)"><image xlink:href="../../C667F2AE-898B-45BB-A62C-D7DBF1FCC302/assets/16FCC1994AC46CEBE0A3ED4AD69C42B7.jpeg" width="2048.00" height="1536.00" transform="matrix(0.50, 0.00, -0.00, -0.50, 0.0, 768.0)"></image></g></g><image xlink:href="../../963290A0-FE9D-45DA-829B-E5C75829CAAD/assets/A91B11B3C59DE135CFDF45EA66E0FC8C.png" width="689.00" height="82.00" transform="matrix(1.00, 0.00, -0.00, -1.00, 170.0, 683.0)"></image><text xml:space="preserve" font-family="Baskerville,Baskerville" font-size="78.0" fill="#767366" transform="matrix(1.00, 0.00, -0.00, -1.00, 171.4, 626.2)">G</text><text xml:space="preserve" font-family="Baskerville,Baskerville" font-size="78.0" fill="#767366" transform="matrix(1.00, 0.00, -0.00, -1.00, 231.6, 626.2)">o</text><text xml:space="preserve" font-family="Baskerville,Baskerville" font-size="78.0" fill="#767366" transform="matrix(1.00, 0.00, -0.00, -1.00, 270.6, 626.2)">a</text><text xml:space="preserve" font-family="Baskerville,Baskerville" font-size="78.0" fill="#767366" transform="matrix(1.00, 0.00, -0.00, -1.00, 307.1, 626.2)">l</text><text xml:space="preserve" font-family="Baskerville,Baskerville" font-size="78.0" fill="#767366" transform="matrix(1.00, 0.00, -0.00, -1.00, 325.8, 626.2)">s</text><text xml:space="preserve" font-family="Baskerville,Baskerville" font-size="78.0" fill="#767366" transform="matrix(1.00, 0.00, -0.00, -1.00, 351.8, 626.2)"> </text><text xml:space="preserve" font-family="Baskerville,Baskerville" font-size="78.0" fill="#767366" transform="matrix(1.00, 0.00, -0.00, -1.00, 371.3, 626.2)">f</text><text xml:space="preserve" font-family="Baskerville,Baskerville" font-size="78.0" fill="#767366" transform="matrix(1.00, 0.00, -0.00, -1.00, 391.7, 626.2)">o</text><text xml:space="preserve" font-family="Baskerville,Baskerville" font-size="78.0" fill="#767366" transform="matrix(1.00, 0.00, -0.00, -1.00, 430.7, 626.2)">r</text><text xml:space="preserve" font-family="Baskerville,Baskerville" font-size="78.0" fill="#767366" transform="matrix(1.00, 0.00, -0.00, -1.00, 459.1, 626.2)"> </text><text xml:space="preserve" font-family="Baskerville,Baskerville" font-size="78.0" fill="#767366" transform="matrix(1.00, 0.00, -0.00, -1.00, 478.6, 626.2)">t</text><text xml:space="preserve" font-family="Baskerville,Baskerville" font-size="78.0" fill="#767366" transform="matrix(1.00, 0.00, -0.00, -1.00, 501.3, 626.2)">h</text><text xml:space="preserve" font-family="Baskerville,Baskerville" font-size="78.0" fill="#767366" transform="matrix(1.00, 0.00, -0.00, -1.00, 542.8, 626.2)">e</text><text xml:space="preserve" font-family="Baskerville,Baskerville" font-size="78.0" fill="#767366" transform="matrix(1.00, 0.00, -0.00, -1.00, 576.9, 626.2)"> </text><text xml:space="preserve" font-family="Baskerville,Baskerville" font-size="78.0" fill="#767366" transform="matrix(1.00, 0.00, -0.00, -1.00, 596.4, 626.2)">E</text><text xml:space="preserve" font-family="Baskerville,Baskerville" font-size="78.0" fill="#767366" transform="matrix(1.00, 0.00, -0.00, -1.00, 645.1, 626.2)">v</text><text xml:space="preserve" font-family="Baskerville,Baskerville" font-size="78.0" fill="#767366" transform="matrix(1.00, 0.00, -0.00, -1.00, 679.5, 626.2)">e</text><text xml:space="preserve" font-family="Baskerville,Baskerville" font-size="78.0" fill="#767366" transform="matrix(1.00, 0.00, -0.00, -1.00, 713.5, 626.2)">n</text><text xml:space="preserve" font-family="Baskerville,Baskerville" font-size="78.0" fill="#767366" transform="matrix(1.00, 0.00, -0.00, -1.00, 755.0, 626.2)">i</text><text xml:space="preserve" font-family="Baskerville,Baskerville" font-size="78.0" fill="#767366" transform="matrix(1.00, 0.00, -0.00, -1.00, 774.5, 626.2)">n</text><text xml:space="preserve" font-family="Baskerville,Baskerville" font-size="78.0" fill="#767366" transform="matrix(1.00, 0.00, -0.00, -1.00, 816.0, 626.2)">g</text><image xlink:href="../../C667F2AE-898B-45BB-A62C-D7DBF1FCC302/assets/3C76648DC2A96098B36F2ADCFCA6A343.png" width="100.00" height="100.00" transform="matrix(0.18, 0.00, -0.00, -0.18, 66.0, 395.0)"></image><text xml:space="preserve" font-family="HoeflerText-Regular,Hoefler Text" font-size="36.0" fill="#5E5E5E" transform="matrix(1.00, 0.00, -0.00, -1.00, 97.0, 374.0)">W</text><text xml:space="preserve" font-family="HoeflerText-Regular,Hoefler Text" font-size="36.0" fill="#5E5E5E" transform="matrix(1.00, 0.00, -0.00, -1.00, 137.5, 374.0)">h</text><text xml:space="preserve" font-family="HoeflerText-Regular,Hoefler Text" font-size="36.0" fill="#5E5E5E" transform="matrix(1.00, 0.00, -0.00, -1.00, 157.4, 374.0)">a</text><text xml:space="preserve" font-family="HoeflerText-Regular,Hoefler Text" font-size="36.0" fill="#5E5E5E" transform="matrix(1.00, 0.00, -0.00, -1.00, 173.5, 374.0)">t</text><text xml:space="preserve" font-family="HoeflerText-Regular,Hoefler Text" font-size="36.0" fill="#5E5E5E" transform="matrix(1.00, 0.00, -0.00, -1.00, 186.7, 374.0)"> </text><text xml:space="preserve" font-family="HoeflerText-Regular,Hoefler Text" font-size="36.0" fill="#5E5E5E" transform="matrix(1.00, 0.00, -0.00, -1.00, 195.7, 374.0)">p</text><text xml:space="preserve" font-family="HoeflerText-Regular,Hoefler Text" font-size="36.0" fill="#5E5E5E" transform="matrix(1.00, 0.00, -0.00, -1.00, 215.5, 374.0)">r</text><text xml:space="preserve" font-family="HoeflerText-Regular,Hoefler Text" font-size="36.0" fill="#5E5E5E" transform="matrix(1.00, 0.00, -0.00, -1.00, 228.9, 374.0)">o</text><text xml:space="preserve" font-family="HoeflerText-Regular,Hoefler Text" font-size="36.0" fill="#5E5E5E" transform="matrix(1.00, 0.00, -0.00, -1.00, 248.2, 374.0)">b</text><text xml:space="preserve" font-family="HoeflerText-Regular,Hoefler Text" font-size="36.0" fill="#5E5E5E" transform="matrix(1.00, 0.00, -0.00, -1.00, 267.9, 374.0)">l</text><text xml:space="preserve" font-family="HoeflerText-Regular,Hoefler Text" font-size="36.0" fill="#5E5E5E" transform="matrix(1.00, 0.00, -0.00, -1.00, 277.2, 374.0)">e</text><text xml:space="preserve" font-family="HoeflerText-Regular,Hoefler Text" font-size="36.0" fill="#5E5E5E" transform="matrix(1.00, 0.00, -0.00, -1.00, 294.1, 374.0)">m</text><text xml:space="preserve" font-family="HoeflerText-Regular,Hoefler Text" font-size="36.0" fill="#5E5E5E" transform="matrix(1.00, 0.00, -0.00, -1.00, 323.8, 374.0)"> </text><text xml:space="preserve" font-family="HoeflerText-Regular,Hoefler Text" font-size="36.0" fill="#5E5E5E" transform="matrix(1.00, 0.00, -0.00, -1.00, 332.8, 374.0)">d</text><text xml:space="preserve" font-family="HoeflerText-Regular,Hoefler Text" font-size="36.0" fill="#5E5E5E" transform="matrix(1.00, 0.00, -0.00, -1.00, 352.3, 374.0)">o</text><text xml:space="preserve" font-family="HoeflerText-Regular,Hoefler Text" font-size="36.0" fill="#5E5E5E" transform="matrix(1.00, 0.00, -0.00, -1.00, 371.6, 374.0)">e</text><text xml:space="preserve" font-family="HoeflerText-Regular,Hoefler Text" font-size="36.0" fill="#5E5E5E" transform="matrix(1.00, 0.00, -0.00, -1.00, 388.5, 374.0)">s</text><text xml:space="preserve" font-family="HoeflerText-Regular,Hoefler Text" font-size="36.0" fill="#5E5E5E" transform="matrix(1.00, 0.00, -0.00, -1.00, 402.2, 374.0)"> </text><text xml:space="preserve" font-family="HoeflerText-Regular,Hoefler Text" font-size="36.0" fill="#5E5E5E" transform="matrix(1.00, 0.00, -0.00, -1.00, 411.2, 374.0)">E</text><text xml:space="preserve" font-family="HoeflerText-Regular,Hoefler Text" font-size="36.0" fill="#5E5E5E" transform="matrix(1.00, 0.00, -0.00, -1.00, 434.7, 374.0)">l</text><text xml:space="preserve" font-family="HoeflerText-Regular,Hoefler Text" font-size="36.0" fill="#5E5E5E" transform="matrix(1.00, 0.00, -0.00, -1.00, 444.0, 374.0)">m</text><text xml:space="preserve" font-family="HoeflerText-Regular,Hoefler Text" font-size="36.0" fill="#5E5E5E" transform="matrix(1.00, 0.00, -0.00, -1.00, 473.8, 374.0)"> </text><text xml:space="preserve" font-family="HoeflerText-Regular,Hoefler Text" font-size="36.0" fill="#5E5E5E" transform="matrix(1.00, 0.00, -0.00, -1.00, 482.8, 374.0)">/</text><text xml:space="preserve" font-family="HoeflerText-Regular,Hoefler Text" font-size="36.0" fill="#5E5E5E" transform="matrix(1.00, 0.00, -0.00, -1.00, 493.0, 374.0)"> </text><text xml:space="preserve" font-family="HoeflerText-Regular,Hoefler Text" font-size="36.0" fill="#5E5E5E" transform="matrix(1.00, 0.00, -0.00, -1.00, 502.0, 374.0)">f</text><text xml:space="preserve" font-family="HoeflerText-Regular,Hoefler Text" font-size="36.0" fill="#5E5E5E" transform="matrix(1.00, 0.00, -0.00, -1.00, 514.0, 374.0)">u</text><text xml:space="preserve" font-family="HoeflerText-Regular,Hoefler Text" font-size="36.0" fill="#5E5E5E" transform="matrix(1.00, 0.00, -0.00, -1.00, 532.9, 374.0)">n</text><text xml:space="preserve" font-family="HoeflerText-Regular,Hoefler Text" font-size="36.0" fill="#5E5E5E" transform="matrix(1.00, 0.00, -0.00, -1.00, 552.6, 374.0)">c</text><text xml:space="preserve" font-family="HoeflerText-Regular,Hoefler Text" font-size="36.0" fill="#5E5E5E" transform="matrix(1.00, 0.00, -0.00, -1.00, 569.2, 374.0)">t</text><text xml:space="preserve" font-family="HoeflerText-Regular,Hoefler Text" font-size="36.0" fill="#5E5E5E" transform="matrix(1.00, 0.00, -0.00, -1.00, 582.5, 374.0)">i</text><text xml:space="preserve" font-family="HoeflerText-Regular,Hoefler Text" font-size="36.0" fill="#5E5E5E" transform="matrix(1.00, 0.00, -0.00, -1.00, 592.6, 374.0)">o</text><text xml:space="preserve" font-family="HoeflerText-Regular,Hoefler Text" font-size="36.0" fill="#5E5E5E" transform="matrix(1.00, 0.00, -0.00, -1.00, 611.9, 374.0)">n</text><text xml:space="preserve" font-family="HoeflerText-Regular,Hoefler Text" font-size="36.0" fill="#5E5E5E" transform="matrix(1.00, 0.00, -0.00, -1.00, 631.6, 374.0)">a</text><text xml:space="preserve" font-family="HoeflerText-Regular,Hoefler Text" font-size="36.0" fill="#5E5E5E" transform="matrix(1.00, 0.00, -0.00, -1.00, 647.7, 374.0)">l</text><text xml:space="preserve" font-family="HoeflerText-Regular,Hoefler Text" font-size="36.0" fill="#5E5E5E" transform="matrix(1.00, 0.00, -0.00, -1.00, 657.0, 374.0)"> </text><text xml:space="preserve" font-family="HoeflerText-Regular,Hoefler Text" font-size="36.0" fill="#5E5E5E" transform="matrix(1.00, 0.00, -0.00, -1.00, 666.0, 374.0)">p</text><text xml:space="preserve" font-family="HoeflerText-Regular,Hoefler Text" font-size="36.0" fill="#5E5E5E" transform="matrix(1.00, 0.00, -0.00, -1.00, 685.7, 374.0)">r</text><text xml:space="preserve" font-family="HoeflerText-Regular,Hoefler Text" font-size="36.0" fill="#5E5E5E" transform="matrix(1.00, 0.00, -0.00, -1.00, 699.1, 374.0)">o</text><text xml:space="preserve" font-family="HoeflerText-Regular,Hoefler Text" font-size="36.0" fill="#5E5E5E" transform="matrix(1.00, 0.00, -0.00, -1.00, 718.4, 374.0)">g</text><text xml:space="preserve" font-family="HoeflerText-Regular,Hoefler Text" font-size="36.0" fill="#5E5E5E" transform="matrix(1.00, 0.00, -0.00, -1.00, 735.4, 374.0)">r</text><text xml:space="preserve" font-family="HoeflerText-Regular,Hoefler Text" font-size="36.0" fill="#5E5E5E" transform="matrix(1.00, 0.00, -0.00, -1.00, 748.8, 374.0)">a</text><text xml:space="preserve" font-family="HoeflerText-Regular,Hoefler Text" font-size="36.0" fill="#5E5E5E" transform="matrix(1.00, 0.00, -0.00, -1.00, 764.8, 374.0)">m</text><text xml:space="preserve" font-family="HoeflerText-Regular,Hoefler Text" font-size="36.0" fill="#5E5E5E" transform="matrix(1.00, 0.00, -0.00, -1.00, 794.6, 374.0)">m</text><text xml:space="preserve" font-family="HoeflerText-Regular,Hoefler Text" font-size="36.0" fill="#5E5E5E" transform="matrix(1.00, 0.00, -0.00, -1.00, 824.4, 374.0)">i</text><text xml:space="preserve" font-family="HoeflerText-Regular,Hoefler Text" font-size="36.0" fill="#5E5E5E" transform="matrix(1.00, 0.00, -0.00, -1.00, 834.5, 374.0)">n</text><text xml:space="preserve" font-family="HoeflerText-Regular,Hoefler Text" font-size="36.0" fill="#5E5E5E" transform="matrix(1.00, 0.00, -0.00, -1.00, 854.2, 374.0)">g</text><text xml:space="preserve" font-family="HoeflerText-Regular,Hoefler Text" font-size="36.0" fill="#5E5E5E" transform="matrix(1.00, 0.00, -0.00, -1.00, 871.2, 374.0)"> </text><text xml:space="preserve" font-family="HoeflerText-Regular,Hoefler Text" font-size="36.0" fill="#5E5E5E" transform="matrix(1.00, 0.00, -0.00, -1.00, 97.0, 331.0)">s</text><text xml:space="preserve" font-family="HoeflerText-Regular,Hoefler Text" font-size="36.0" fill="#5E5E5E" transform="matrix(1.00, 0.00, -0.00, -1.00, 110.8, 331.0)">o</text><text xml:space="preserve" font-family="HoeflerText-Regular,Hoefler Text" font-size="36.0" fill="#5E5E5E" transform="matrix(1.00, 0.00, -0.00, -1.00, 130.0, 331.0)">l</text><text xml:space="preserve" font-family="HoeflerText-Regular,Hoefler Text" font-size="36.0" fill="#5E5E5E" transform="matrix(1.00, 0.00, -0.00, -1.00, 139.4, 331.0)">v</text><text xml:space="preserve" font-family="HoeflerText-Regular,Hoefler Text" font-size="36.0" fill="#5E5E5E" transform="matrix(1.00, 0.00, -0.00, -1.00, 155.8, 331.0)">e</text><text xml:space="preserve" font-family="HoeflerText-Regular,Hoefler Text" font-size="36.0" fill="#5E5E5E" transform="matrix(1.00, 0.00, -0.00, -1.00, 172.6, 331.0)">?</text><image xlink:href="../../C667F2AE-898B-45BB-A62C-D7DBF1FCC302/assets/3C76648DC2A96098B36F2ADCFCA6A343.png" width="100.00" height="100.00" transform="matrix(0.18, 0.00, -0.00, -0.18, 66.0, 273.0)"></image><text xml:space="preserve" font-family="HoeflerText-Regular,Hoefler Text" font-size="36.0" fill="#5E5E5E" transform="matrix(1.00, 0.00, -0.00, -1.00, 97.0, 252.0)">H</text><text xml:space="preserve" font-family="HoeflerText-Regular,Hoefler Text" font-size="36.0" fill="#5E5E5E" transform="matrix(1.00, 0.00, -0.00, -1.00, 126.9, 252.0)">o</text><text xml:space="preserve" font-family="HoeflerText-Regular,Hoefler Text" font-size="36.0" fill="#5E5E5E" transform="matrix(1.00, 0.00, -0.00, -1.00, 146.2, 252.0)">w</text><text xml:space="preserve" font-family="HoeflerText-Regular,Hoefler Text" font-size="36.0" fill="#5E5E5E" transform="matrix(1.00, 0.00, -0.00, -1.00, 171.3, 252.0)"> </text><text xml:space="preserve" font-family="HoeflerText-Regular,Hoefler Text" font-size="36.0" fill="#5E5E5E" transform="matrix(1.00, 0.00, -0.00, -1.00, 180.3, 252.0)">w</text><text xml:space="preserve" font-family="HoeflerText-Regular,Hoefler Text" font-size="36.0" fill="#5E5E5E" transform="matrix(1.00, 0.00, -0.00, -1.00, 205.5, 252.0)">i</text><text xml:space="preserve" font-family="HoeflerText-Regular,Hoefler Text" font-size="36.0" fill="#5E5E5E" transform="matrix(1.00, 0.00, -0.00, -1.00, 215.6, 252.0)">l</text><text xml:space="preserve" font-family="HoeflerText-Regular,Hoefler Text" font-size="36.0" fill="#5E5E5E" transform="matrix(1.00, 0.00, -0.00, -1.00, 225.3, 252.0)">l</text><text xml:space="preserve" font-family="HoeflerText-Regular,Hoefler Text" font-size="36.0" fill="#5E5E5E" transform="matrix(1.00, 0.00, -0.00, -1.00, 234.6, 252.0)"> </text><text xml:space="preserve" font-family="HoeflerText-Regular,Hoefler Text" font-size="36.0" fill="#5E5E5E" transform="matrix(1.00, 0.00, -0.00, -1.00, 243.6, 252.0)">t</text><text xml:space="preserve" font-family="HoeflerText-Regular,Hoefler Text" font-size="36.0" fill="#5E5E5E" transform="matrix(1.00, 0.00, -0.00, -1.00, 256.9, 252.0)">h</text><text xml:space="preserve" font-family="HoeflerText-Regular,Hoefler Text" font-size="36.0" fill="#5E5E5E" transform="matrix(1.00, 0.00, -0.00, -1.00, 276.8, 252.0)">i</text><text xml:space="preserve" font-family="HoeflerText-Regular,Hoefler Text" font-size="36.0" fill="#5E5E5E" transform="matrix(1.00, 0.00, -0.00, -1.00, 286.9, 252.0)">s</text><text xml:space="preserve" font-family="HoeflerText-Regular,Hoefler Text" font-size="36.0" fill="#5E5E5E" transform="matrix(1.00, 0.00, -0.00, -1.00, 300.7, 252.0)"> </text><text xml:space="preserve" font-family="HoeflerText-Regular,Hoefler Text" font-size="36.0" fill="#5E5E5E" transform="matrix(1.00, 0.00, -0.00, -1.00, 309.7, 252.0)">m</text><text xml:space="preserve" font-family="HoeflerText-Regular,Hoefler Text" font-size="36.0" fill="#5E5E5E" transform="matrix(1.00, 0.00, -0.00, -1.00, 339.4, 252.0)">a</text><text xml:space="preserve" font-family="HoeflerText-Regular,Hoefler Text" font-size="36.0" fill="#5E5E5E" transform="matrix(1.00, 0.00, -0.00, -1.00, 355.5, 252.0)">k</text><text xml:space="preserve" font-family="HoeflerText-Regular,Hoefler Text" font-size="36.0" fill="#5E5E5E" transform="matrix(1.00, 0.00, -0.00, -1.00, 373.9, 252.0)">e</text><text xml:space="preserve" font-family="HoeflerText-Regular,Hoefler Text" font-size="36.0" fill="#5E5E5E" transform="matrix(1.00, 0.00, -0.00, -1.00, 390.8, 252.0)"> </text><text xml:space="preserve" font-family="HoeflerText-Regular,Hoefler Text" font-size="36.0" fill="#5E5E5E" transform="matrix(1.00, 0.00, -0.00, -1.00, 399.8, 252.0)">m</text><text xml:space="preserve" font-family="HoeflerText-Regular,Hoefler Text" font-size="36.0" fill="#5E5E5E" transform="matrix(1.00, 0.00, -0.00, -1.00, 429.5, 252.0)">e</text><text xml:space="preserve" font-family="HoeflerText-Regular,Hoefler Text" font-size="36.0" fill="#5E5E5E" transform="matrix(1.00, 0.00, -0.00, -1.00, 446.4, 252.0)"> </text><text xml:space="preserve" font-family="HoeflerText-Regular,Hoefler Text" font-size="36.0" fill="#5E5E5E" transform="matrix(1.00, 0.00, -0.00, -1.00, 455.4, 252.0)">a</text><text xml:space="preserve" font-family="HoeflerText-Regular,Hoefler Text" font-size="36.0" fill="#5E5E5E" transform="matrix(1.00, 0.00, -0.00, -1.00, 471.4, 252.0)"> </text><text xml:space="preserve" font-family="HoeflerText-Regular,Hoefler Text" font-size="36.0" fill="#5E5E5E" transform="matrix(1.00, 0.00, -0.00, -1.00, 480.4, 252.0)">b</text><text xml:space="preserve" font-family="HoeflerText-Regular,Hoefler Text" font-size="36.0" fill="#5E5E5E" transform="matrix(1.00, 0.00, -0.00, -1.00, 500.2, 252.0)">e</text><text xml:space="preserve" font-family="HoeflerText-Regular,Hoefler Text" font-size="36.0" fill="#5E5E5E" transform="matrix(1.00, 0.00, -0.00, -1.00, 517.0, 252.0)">t</text><text xml:space="preserve" font-family="HoeflerText-Regular,Hoefler Text" font-size="36.0" fill="#5E5E5E" transform="matrix(1.00, 0.00, -0.00, -1.00, 530.3, 252.0)">t</text><text xml:space="preserve" font-family="HoeflerText-Regular,Hoefler Text" font-size="36.0" fill="#5E5E5E" transform="matrix(1.00, 0.00, -0.00, -1.00, 543.0, 252.0)">e</text><text xml:space="preserve" font-family="HoeflerText-Regular,Hoefler Text" font-size="36.0" fill="#5E5E5E" transform="matrix(1.00, 0.00, -0.00, -1.00, 559.9, 252.0)">r</text><text xml:space="preserve" font-family="HoeflerText-Regular,Hoefler Text" font-size="36.0" fill="#5E5E5E" transform="matrix(1.00, 0.00, -0.00, -1.00, 573.3, 252.0)"> </text><text xml:space="preserve" font-family="HoeflerText-Regular,Hoefler Text" font-size="36.0" fill="#5E5E5E" transform="matrix(1.00, 0.00, -0.00, -1.00, 582.3, 252.0)">d</text><text xml:space="preserve" font-family="HoeflerText-Regular,Hoefler Text" font-size="36.0" fill="#5E5E5E" transform="matrix(1.00, 0.00, -0.00, -1.00, 601.8, 252.0)">e</text><text xml:space="preserve" font-family="HoeflerText-Regular,Hoefler Text" font-size="36.0" fill="#5E5E5E" transform="matrix(1.00, 0.00, -0.00, -1.00, 619.0, 252.0)">v</text><text xml:space="preserve" font-family="HoeflerText-Regular,Hoefler Text" font-size="36.0" fill="#5E5E5E" transform="matrix(1.00, 0.00, -0.00, -1.00, 635.4, 252.0)">e</text><text xml:space="preserve" font-family="HoeflerText-Regular,Hoefler Text" font-size="36.0" fill="#5E5E5E" transform="matrix(1.00, 0.00, -0.00, -1.00, 652.2, 252.0)">l</text><text xml:space="preserve" font-family="HoeflerText-Regular,Hoefler Text" font-size="36.0" fill="#5E5E5E" transform="matrix(1.00, 0.00, -0.00, -1.00, 661.6, 252.0)">o</text><text xml:space="preserve" font-family="HoeflerText-Regular,Hoefler Text" font-size="36.0" fill="#5E5E5E" transform="matrix(1.00, 0.00, -0.00, -1.00, 680.8, 252.0)">p</text><text xml:space="preserve" font-family="HoeflerText-Regular,Hoefler Text" font-size="36.0" fill="#5E5E5E" transform="matrix(1.00, 0.00, -0.00, -1.00, 700.6, 252.0)">e</text><text xml:space="preserve" font-family="HoeflerText-Regular,Hoefler Text" font-size="36.0" fill="#5E5E5E" transform="matrix(1.00, 0.00, -0.00, -1.00, 717.4, 252.0)">r</text><text xml:space="preserve" font-family="HoeflerText-Regular,Hoefler Text" font-size="36.0" fill="#5E5E5E" transform="matrix(1.00, 0.00, -0.00, -1.00, 730.8, 252.0)">?</text></g></svg>