<?xml version="1.0" encoding="UTF-8" standalone="no"?><svg xmlns="http://www.w3.org/2000/svg" xmlns:xlink="http://www.w3.org/1999/xlink" clip-rule="evenodd" stroke-miterlimit="10" viewBox="0 0 1024 768"><desc>SVG generated by Keynote</desc><defs></defs><g transform="matrix(1.00, 0.00, -0.00, -1.00, 0.0, 768.0)"><g><clipPath id="clip0x7f84974f93e0"><path d="M 0.0 768.0 L 1024.0 768.0 L 1024.0 0.0 L 0.0 0.0 Z M 0.0 768.0 "></path></clipPath><g clip-path="url(#clip0x7f84974f93e0)"><image xlink:href="../../C667F2AE-898B-45BB-A62C-D7DBF1FCC302/assets/16FCC1994AC46CEBE0A3ED4AD69C42B7.jpeg" width="2048.00" height="1536.00" transform="matrix(0.50, 0.00, -0.00, -0.50, 0.0, 768.0)"></image></g></g><image xlink:href="DC50E363F0AD87EF8880B5D5CB301A15.png" width="375.00" height="65.00" transform="matrix(1.00, 0.00, -0.00, -1.00, 320.0, 683.0)"></image><text xml:space="preserve" font-family="Baskerville,Baskerville" font-size="78.0" fill="#767366" transform="matrix(1.00, 0.00, -0.00, -1.00, 325.9, 626.2)">A</text><text xml:space="preserve" font-family="Baskerville,Baskerville" font-size="78.0" fill="#767366" transform="matrix(1.00, 0.00, -0.00, -1.00, 378.8, 626.2)">n</text><text xml:space="preserve" font-family="Baskerville,Baskerville" font-size="78.0" fill="#767366" transform="matrix(1.00, 0.00, -0.00, -1.00, 420.2, 626.2)">d</text><text xml:space="preserve" font-family="Baskerville,Baskerville" font-size="78.0" fill="#767366" transform="matrix(1.00, 0.00, -0.00, -1.00, 460.9, 626.2)"> </text><text xml:space="preserve" font-family="Baskerville,Baskerville" font-size="78.0" fill="#767366" transform="matrix(1.00, 0.00, -0.00, -1.00, 480.4, 626.2)">t</text><text xml:space="preserve" font-family="Baskerville,Baskerville" font-size="78.0" fill="#767366" transform="matrix(1.00, 0.00, -0.00, -1.00, 503.1, 626.2)">h</text><text xml:space="preserve" font-family="Baskerville,Baskerville" font-size="78.0" fill="#767366" transform="matrix(1.00, 0.00, -0.00, -1.00, 544.5, 626.2)">e</text><text xml:space="preserve" font-family="Baskerville,Baskerville" font-size="78.0" fill="#767366" transform="matrix(1.00, 0.00, -0.00, -1.00, 578.6, 626.2)">n</text><text xml:space="preserve" font-family="Baskerville,Baskerville" font-size="78.0" fill="#767366" transform="matrix(1.00, 0.00, -0.00, -1.00, 620.1, 626.2)">…</text><image xlink:href="03F2F9E385BCF09700845CDBDB7399CE.jpeg" width="638.00" height="359.00" transform="matrix(0.87, 0.00, -0.00, -0.87, 192.0, 593.0)"></image><text xml:space="preserve" font-family="HoeflerText-Regular,Hoefler Text" font-size="36.0" fill="#5E5E5E" transform="matrix(1.00, 0.00, -0.00, -1.00, 202.4, 210.5)">2</text><text xml:space="preserve" font-family="HoeflerText-Regular,Hoefler Text" font-size="36.0" fill="#5E5E5E" transform="matrix(1.00, 0.00, -0.00, -1.00, 218.5, 210.5)">-</text><text xml:space="preserve" font-family="HoeflerText-Regular,Hoefler Text" font-size="36.0" fill="#5E5E5E" transform="matrix(1.00, 0.00, -0.00, -1.00, 229.9, 210.5)">w</text><text xml:space="preserve" font-family="HoeflerText-Regular,Hoefler Text" font-size="36.0" fill="#5E5E5E" transform="matrix(1.00, 0.00, -0.00, -1.00, 255.0, 210.5)">a</text><text xml:space="preserve" font-family="HoeflerText-Regular,Hoefler Text" font-size="36.0" fill="#5E5E5E" transform="matrix(1.00, 0.00, -0.00, -1.00, 271.1, 210.5)">y</text><text xml:space="preserve" font-family="HoeflerText-Regular,Hoefler Text" font-size="36.0" fill="#5E5E5E" transform="matrix(1.00, 0.00, -0.00, -1.00, 287.6, 210.5)"> </text><text xml:space="preserve" font-family="HoeflerText-Regular,Hoefler Text" font-size="36.0" fill="#5E5E5E" transform="matrix(1.00, 0.00, -0.00, -1.00, 296.6, 210.5)">d</text><text xml:space="preserve" font-family="HoeflerText-Regular,Hoefler Text" font-size="36.0" fill="#5E5E5E" transform="matrix(1.00, 0.00, -0.00, -1.00, 316.1, 210.5)">a</text><text xml:space="preserve" font-family="HoeflerText-Regular,Hoefler Text" font-size="36.0" fill="#5E5E5E" transform="matrix(1.00, 0.00, -0.00, -1.00, 332.1, 210.5)">t</text><text xml:space="preserve" font-family="HoeflerText-Regular,Hoefler Text" font-size="36.0" fill="#5E5E5E" transform="matrix(1.00, 0.00, -0.00, -1.00, 345.4, 210.5)">a</text><text xml:space="preserve" font-family="HoeflerText-Regular,Hoefler Text" font-size="36.0" fill="#5E5E5E" transform="matrix(1.00, 0.00, -0.00, -1.00, 361.5, 210.5)">-</text><text xml:space="preserve" font-family="HoeflerText-Regular,Hoefler Text" font-size="36.0" fill="#5E5E5E" transform="matrix(1.00, 0.00, -0.00, -1.00, 373.2, 210.5)">b</text><text xml:space="preserve" font-family="HoeflerText-Regular,Hoefler Text" font-size="36.0" fill="#5E5E5E" transform="matrix(1.00, 0.00, -0.00, -1.00, 392.9, 210.5)">i</text><text xml:space="preserve" font-family="HoeflerText-Regular,Hoefler Text" font-size="36.0" fill="#5E5E5E" transform="matrix(1.00, 0.00, -0.00, -1.00, 403.0, 210.5)">n</text><text xml:space="preserve" font-family="HoeflerText-Regular,Hoefler Text" font-size="36.0" fill="#5E5E5E" transform="matrix(1.00, 0.00, -0.00, -1.00, 422.8, 210.5)">d</text><text xml:space="preserve" font-family="HoeflerText-Regular,Hoefler Text" font-size="36.0" fill="#5E5E5E" transform="matrix(1.00, 0.00, -0.00, -1.00, 442.3, 210.5)">i</text><text xml:space="preserve" font-family="HoeflerText-Regular,Hoefler Text" font-size="36.0" fill="#5E5E5E" transform="matrix(1.00, 0.00, -0.00, -1.00, 452.4, 210.5)">n</text><text xml:space="preserve" font-family="HoeflerText-Regular,Hoefler Text" font-size="36.0" fill="#5E5E5E" transform="matrix(1.00, 0.00, -0.00, -1.00, 472.1, 210.5)">g</text><text xml:space="preserve" font-family="HoeflerText-Regular,Hoefler Text" font-size="36.0" fill="#5E5E5E" transform="matrix(1.00, 0.00, -0.00, -1.00, 489.1, 210.5)">,</text><text xml:space="preserve" font-family="HoeflerText-Regular,Hoefler Text" font-size="36.0" fill="#5E5E5E" transform="matrix(1.00, 0.00, -0.00, -1.00, 498.0, 210.5)"> </text><text xml:space="preserve" font-family="HoeflerText-Regular,Hoefler Text" font-size="36.0" fill="#5E5E5E" transform="matrix(1.00, 0.00, -0.00, -1.00, 507.0, 210.5)">t</text><text xml:space="preserve" font-family="HoeflerText-Regular,Hoefler Text" font-size="36.0" fill="#5E5E5E" transform="matrix(1.00, 0.00, -0.00, -1.00, 519.7, 210.5)">e</text><text xml:space="preserve" font-family="HoeflerText-Regular,Hoefler Text" font-size="36.0" fill="#5E5E5E" transform="matrix(1.00, 0.00, -0.00, -1.00, 536.6, 210.5)">m</text><text xml:space="preserve" font-family="HoeflerText-Regular,Hoefler Text" font-size="36.0" fill="#5E5E5E" transform="matrix(1.00, 0.00, -0.00, -1.00, 566.3, 210.5)">p</text><text xml:space="preserve" font-family="HoeflerText-Regular,Hoefler Text" font-size="36.0" fill="#5E5E5E" transform="matrix(1.00, 0.00, -0.00, -1.00, 586.1, 210.5)">l</text><text xml:space="preserve" font-family="HoeflerText-Regular,Hoefler Text" font-size="36.0" fill="#5E5E5E" transform="matrix(1.00, 0.00, -0.00, -1.00, 595.4, 210.5)">a</text><text xml:space="preserve" font-family="HoeflerText-Regular,Hoefler Text" font-size="36.0" fill="#5E5E5E" transform="matrix(1.00, 0.00, -0.00, -1.00, 611.4, 210.5)">t</text><text xml:space="preserve" font-family="HoeflerText-Regular,Hoefler Text" font-size="36.0" fill="#5E5E5E" transform="matrix(1.00, 0.00, -0.00, -1.00, 624.2, 210.5)">e</text><text xml:space="preserve" font-family="HoeflerText-Regular,Hoefler Text" font-size="36.0" fill="#5E5E5E" transform="matrix(1.00, 0.00, -0.00, -1.00, 641.0, 210.5)"> </text><text xml:space="preserve" font-family="HoeflerText-Regular,Hoefler Text" font-size="36.0" fill="#5E5E5E" transform="matrix(1.00, 0.00, -0.00, -1.00, 650.0, 210.5)">l</text><text xml:space="preserve" font-family="HoeflerText-Regular,Hoefler Text" font-size="36.0" fill="#5E5E5E" transform="matrix(1.00, 0.00, -0.00, -1.00, 659.4, 210.5)">i</text><text xml:space="preserve" font-family="HoeflerText-Regular,Hoefler Text" font-size="36.0" fill="#5E5E5E" transform="matrix(1.00, 0.00, -0.00, -1.00, 669.4, 210.5)">b</text><text xml:space="preserve" font-family="HoeflerText-Regular,Hoefler Text" font-size="36.0" fill="#5E5E5E" transform="matrix(1.00, 0.00, -0.00, -1.00, 689.2, 210.5)">r</text><text xml:space="preserve" font-family="HoeflerText-Regular,Hoefler Text" font-size="36.0" fill="#5E5E5E" transform="matrix(1.00, 0.00, -0.00, -1.00, 702.5, 210.5)">a</text><text xml:space="preserve" font-family="HoeflerText-Regular,Hoefler Text" font-size="36.0" fill="#5E5E5E" transform="matrix(1.00, 0.00, -0.00, -1.00, 718.6, 210.5)">r</text><text xml:space="preserve" font-family="HoeflerText-Regular,Hoefler Text" font-size="36.0" fill="#5E5E5E" transform="matrix(1.00, 0.00, -0.00, -1.00, 733.4, 210.5)">y</text><text xml:space="preserve" font-family="HoeflerText-Regular,Hoefler Text" font-size="36.0" fill="#5E5E5E" transform="matrix(1.00, 0.00, -0.00, -1.00, 744.7, 210.5)">,</text><text xml:space="preserve" font-family="HoeflerText-Regular,Hoefler Text" font-size="36.0" fill="#5E5E5E" transform="matrix(1.00, 0.00, -0.00, -1.00, 753.6, 210.5)"> </text><text xml:space="preserve" font-family="HoeflerText-Regular,Hoefler Text" font-size="36.0" fill="#5E5E5E" transform="matrix(1.00, 0.00, -0.00, -1.00, 297.9, 167.5)">s</text><text xml:space="preserve" font-family="HoeflerText-Regular,Hoefler Text" font-size="36.0" fill="#5E5E5E" transform="matrix(1.00, 0.00, -0.00, -1.00, 311.6, 167.5)">t</text><text xml:space="preserve" font-family="HoeflerText-Regular,Hoefler Text" font-size="36.0" fill="#5E5E5E" transform="matrix(1.00, 0.00, -0.00, -1.00, 324.9, 167.5)">a</text><text xml:space="preserve" font-family="HoeflerText-Regular,Hoefler Text" font-size="36.0" fill="#5E5E5E" transform="matrix(1.00, 0.00, -0.00, -1.00, 341.0, 167.5)">t</text><text xml:space="preserve" font-family="HoeflerText-Regular,Hoefler Text" font-size="36.0" fill="#5E5E5E" transform="matrix(1.00, 0.00, -0.00, -1.00, 353.7, 167.5)">e</text><text xml:space="preserve" font-family="HoeflerText-Regular,Hoefler Text" font-size="36.0" fill="#5E5E5E" transform="matrix(1.00, 0.00, -0.00, -1.00, 370.6, 167.5)"> </text><text xml:space="preserve" font-family="HoeflerText-Regular,Hoefler Text" font-size="36.0" fill="#5E5E5E" transform="matrix(1.00, 0.00, -0.00, -1.00, 379.6, 167.5)">i</text><text xml:space="preserve" font-family="HoeflerText-Regular,Hoefler Text" font-size="36.0" fill="#5E5E5E" transform="matrix(1.00, 0.00, -0.00, -1.00, 389.7, 167.5)">n</text><text xml:space="preserve" font-family="HoeflerText-Regular,Hoefler Text" font-size="36.0" fill="#5E5E5E" transform="matrix(1.00, 0.00, -0.00, -1.00, 409.4, 167.5)"> </text><text xml:space="preserve" font-family="HoeflerText-Regular,Hoefler Text" font-size="36.0" fill="#5E5E5E" transform="matrix(1.00, 0.00, -0.00, -1.00, 418.4, 167.5)">D</text><text xml:space="preserve" font-family="HoeflerText-Regular,Hoefler Text" font-size="36.0" fill="#5E5E5E" transform="matrix(1.00, 0.00, -0.00, -1.00, 448.1, 167.5)">O</text><text xml:space="preserve" font-family="HoeflerText-Regular,Hoefler Text" font-size="36.0" fill="#5E5E5E" transform="matrix(1.00, 0.00, -0.00, -1.00, 477.9, 167.5)">M</text><text xml:space="preserve" font-family="HoeflerText-Regular,Hoefler Text" font-size="36.0" fill="#5E5E5E" transform="matrix(1.00, 0.00, -0.00, -1.00, 512.9, 167.5)"> </text><text xml:space="preserve" font-family="HoeflerText-Regular,Hoefler Text" font-size="36.0" fill="#5E5E5E" transform="matrix(1.00, 0.00, -0.00, -1.00, 521.9, 167.5)">a</text><text xml:space="preserve" font-family="HoeflerText-Regular,Hoefler Text" font-size="36.0" fill="#5E5E5E" transform="matrix(1.00, 0.00, -0.00, -1.00, 537.9, 167.5)">n</text><text xml:space="preserve" font-family="HoeflerText-Regular,Hoefler Text" font-size="36.0" fill="#5E5E5E" transform="matrix(1.00, 0.00, -0.00, -1.00, 557.7, 167.5)">d</text><text xml:space="preserve" font-family="HoeflerText-Regular,Hoefler Text" font-size="36.0" fill="#5E5E5E" transform="matrix(1.00, 0.00, -0.00, -1.00, 577.2, 167.5)"> </text><text xml:space="preserve" font-family="HoeflerText-Regular,Hoefler Text" font-size="36.0" fill="#5E5E5E" transform="matrix(1.00, 0.00, -0.00, -1.00, 586.2, 167.5)">c</text><text xml:space="preserve" font-family="HoeflerText-Regular,Hoefler Text" font-size="36.0" fill="#5E5E5E" transform="matrix(1.00, 0.00, -0.00, -1.00, 602.5, 167.5)">o</text><text xml:space="preserve" font-family="HoeflerText-Regular,Hoefler Text" font-size="36.0" fill="#5E5E5E" transform="matrix(1.00, 0.00, -0.00, -1.00, 621.7, 167.5)">d</text><text xml:space="preserve" font-family="HoeflerText-Regular,Hoefler Text" font-size="36.0" fill="#5E5E5E" transform="matrix(1.00, 0.00, -0.00, -1.00, 641.3, 167.5)">e</text></g></svg>