<?xml version="1.0" encoding="UTF-8" standalone="no"?><svg xmlns="http://www.w3.org/2000/svg" xmlns:xlink="http://www.w3.org/1999/xlink" clip-rule="evenodd" stroke-miterlimit="10" viewBox="0 0 1024 768"><desc>SVG generated by Keynote</desc><defs></defs><g transform="matrix(1.00, 0.00, -0.00, -1.00, 0.0, 768.0)"><g><clipPath id="clip0x7f84973a9b10"><path d="M 0.0 768.0 L 1024.0 768.0 L 1024.0 0.0 L 0.0 0.0 Z M 0.0 768.0 "></path></clipPath><g clip-path="url(#clip0x7f84973a9b10)"><image xlink:href="../../C667F2AE-898B-45BB-A62C-D7DBF1FCC302/assets/16FCC1994AC46CEBE0A3ED4AD69C42B7.jpeg" width="2048.00" height="1536.00" transform="matrix(0.50, 0.00, -0.00, -0.50, 0.0, 768.0)"></image></g></g><image xlink:href="../../8AC48E7C-CFE7-4589-98AA-6965E247F435/assets/E17354C0FE9880C24C526C14D48CF354.png" width="671.00" height="82.00" transform="matrix(1.00, 0.00, -0.00, -1.00, 178.0, 683.0)"></image><text xml:space="preserve" font-family="Baskerville,Baskerville" font-size="78.0" fill="#767366" transform="matrix(1.00, 0.00, -0.00, -1.00, 179.4, 626.2)">O</text><text xml:space="preserve" font-family="Baskerville,Baskerville" font-size="78.0" fill="#767366" transform="matrix(1.00, 0.00, -0.00, -1.00, 243.6, 626.2)">r</text><text xml:space="preserve" font-family="Baskerville,Baskerville" font-size="78.0" fill="#767366" transform="matrix(1.00, 0.00, -0.00, -1.00, 272.0, 626.2)">i</text><text xml:space="preserve" font-family="Baskerville,Baskerville" font-size="78.0" fill="#767366" transform="matrix(1.00, 0.00, -0.00, -1.00, 291.5, 626.2)">g</text><text xml:space="preserve" font-family="Baskerville,Baskerville" font-size="78.0" fill="#767366" transform="matrix(1.00, 0.00, -0.00, -1.00, 328.0, 626.2)">i</text><text xml:space="preserve" font-family="Baskerville,Baskerville" font-size="78.0" fill="#767366" transform="matrix(1.00, 0.00, -0.00, -1.00, 347.5, 626.2)">n</text><text xml:space="preserve" font-family="Baskerville,Baskerville" font-size="78.0" fill="#767366" transform="matrix(1.00, 0.00, -0.00, -1.00, 389.0, 626.2)">s</text><text xml:space="preserve" font-family="Baskerville,Baskerville" font-size="78.0" fill="#767366" transform="matrix(1.00, 0.00, -0.00, -1.00, 415.1, 626.2)"> </text><text xml:space="preserve" font-family="Baskerville,Baskerville" font-size="78.0" fill="#767366" transform="matrix(1.00, 0.00, -0.00, -1.00, 434.6, 626.2)">o</text><text xml:space="preserve" font-family="Baskerville,Baskerville" font-size="78.0" fill="#767366" transform="matrix(1.00, 0.00, -0.00, -1.00, 473.6, 626.2)">f</text><text xml:space="preserve" font-family="Baskerville,Baskerville" font-size="78.0" fill="#767366" transform="matrix(1.00, 0.00, -0.00, -1.00, 505.9, 626.2)"> </text><text xml:space="preserve" font-family="Baskerville,Baskerville" font-size="78.0" fill="#767366" transform="matrix(1.00, 0.00, -0.00, -1.00, 525.4, 626.2)">F</text><text xml:space="preserve" font-family="Baskerville,Baskerville" font-size="78.0" fill="#767366" transform="matrix(1.00, 0.00, -0.00, -1.00, 564.1, 626.2)">r</text><text xml:space="preserve" font-family="Baskerville,Baskerville" font-size="78.0" fill="#767366" transform="matrix(1.00, 0.00, -0.00, -1.00, 591.1, 626.2)">o</text><text xml:space="preserve" font-family="Baskerville,Baskerville" font-size="78.0" fill="#767366" transform="matrix(1.00, 0.00, -0.00, -1.00, 630.1, 626.2)">n</text><text xml:space="preserve" font-family="Baskerville,Baskerville" font-size="78.0" fill="#767366" transform="matrix(1.00, 0.00, -0.00, -1.00, 671.5, 626.2)">t</text><text xml:space="preserve" font-family="Baskerville,Baskerville" font-size="78.0" fill="#767366" transform="matrix(1.00, 0.00, -0.00, -1.00, 694.2, 626.2)"> </text><text xml:space="preserve" font-family="Baskerville,Baskerville" font-size="78.0" fill="#767366" transform="matrix(1.00, 0.00, -0.00, -1.00, 713.7, 626.2)">E</text><text xml:space="preserve" font-family="Baskerville,Baskerville" font-size="78.0" fill="#767366" transform="matrix(1.00, 0.00, -0.00, -1.00, 762.5, 626.2)">n</text><text xml:space="preserve" font-family="Baskerville,Baskerville" font-size="78.0" fill="#767366" transform="matrix(1.00, 0.00, -0.00, -1.00, 804.0, 626.2)">d</text><text xml:space="preserve" font-family="HoeflerText-Regular,Hoefler Text" font-size="36.0" fill="#5E5E5E" transform="matrix(1.00, 0.00, -0.00, -1.00, 293.0, 313.0)">D</text><text xml:space="preserve" font-family="HoeflerText-Regular,Hoefler Text" font-size="36.0" fill="#5E5E5E" transform="matrix(1.00, 0.00, -0.00, -1.00, 322.7, 313.0)">O</text><text xml:space="preserve" font-family="HoeflerText-Regular,Hoefler Text" font-size="36.0" fill="#5E5E5E" transform="matrix(1.00, 0.00, -0.00, -1.00, 352.5, 313.0)">M</text><text xml:space="preserve" font-family="HoeflerText-Regular,Hoefler Text" font-size="36.0" fill="#5E5E5E" transform="matrix(1.00, 0.00, -0.00, -1.00, 387.5, 313.0)"> </text><text xml:space="preserve" font-family="HoeflerText-Regular,Hoefler Text" font-size="36.0" fill="#5E5E5E" transform="matrix(1.00, 0.00, -0.00, -1.00, 396.5, 313.0)">m</text><text xml:space="preserve" font-family="HoeflerText-Regular,Hoefler Text" font-size="36.0" fill="#5E5E5E" transform="matrix(1.00, 0.00, -0.00, -1.00, 426.3, 313.0)">a</text><text xml:space="preserve" font-family="HoeflerText-Regular,Hoefler Text" font-size="36.0" fill="#5E5E5E" transform="matrix(1.00, 0.00, -0.00, -1.00, 442.3, 313.0)">n</text><text xml:space="preserve" font-family="HoeflerText-Regular,Hoefler Text" font-size="36.0" fill="#5E5E5E" transform="matrix(1.00, 0.00, -0.00, -1.00, 462.1, 313.0)">i</text><text xml:space="preserve" font-family="HoeflerText-Regular,Hoefler Text" font-size="36.0" fill="#5E5E5E" transform="matrix(1.00, 0.00, -0.00, -1.00, 472.1, 313.0)">p</text><text xml:space="preserve" font-family="HoeflerText-Regular,Hoefler Text" font-size="36.0" fill="#5E5E5E" transform="matrix(1.00, 0.00, -0.00, -1.00, 491.9, 313.0)">u</text><text xml:space="preserve" font-family="HoeflerText-Regular,Hoefler Text" font-size="36.0" fill="#5E5E5E" transform="matrix(1.00, 0.00, -0.00, -1.00, 510.7, 313.0)">l</text><text xml:space="preserve" font-family="HoeflerText-Regular,Hoefler Text" font-size="36.0" fill="#5E5E5E" transform="matrix(1.00, 0.00, -0.00, -1.00, 520.0, 313.0)">a</text><text xml:space="preserve" font-family="HoeflerText-Regular,Hoefler Text" font-size="36.0" fill="#5E5E5E" transform="matrix(1.00, 0.00, -0.00, -1.00, 536.1, 313.0)">t</text><text xml:space="preserve" font-family="HoeflerText-Regular,Hoefler Text" font-size="36.0" fill="#5E5E5E" transform="matrix(1.00, 0.00, -0.00, -1.00, 549.4, 313.0)">i</text><text xml:space="preserve" font-family="HoeflerText-Regular,Hoefler Text" font-size="36.0" fill="#5E5E5E" transform="matrix(1.00, 0.00, -0.00, -1.00, 559.4, 313.0)">o</text><text xml:space="preserve" font-family="HoeflerText-Regular,Hoefler Text" font-size="36.0" fill="#5E5E5E" transform="matrix(1.00, 0.00, -0.00, -1.00, 578.7, 313.0)">n</text><text xml:space="preserve" font-family="HoeflerText-Regular,Hoefler Text" font-size="36.0" fill="#5E5E5E" transform="matrix(1.00, 0.00, -0.00, -1.00, 598.5, 313.0)">,</text><text xml:space="preserve" font-family="HoeflerText-Regular,Hoefler Text" font-size="36.0" fill="#5E5E5E" transform="matrix(1.00, 0.00, -0.00, -1.00, 607.4, 313.0)"> </text><text xml:space="preserve" font-family="HoeflerText-Regular,Hoefler Text" font-size="36.0" fill="#5E5E5E" transform="matrix(1.00, 0.00, -0.00, -1.00, 616.4, 313.0)">m</text><text xml:space="preserve" font-family="HoeflerText-Regular,Hoefler Text" font-size="36.0" fill="#5E5E5E" transform="matrix(1.00, 0.00, -0.00, -1.00, 646.1, 313.0)">u</text><text xml:space="preserve" font-family="HoeflerText-Regular,Hoefler Text" font-size="36.0" fill="#5E5E5E" transform="matrix(1.00, 0.00, -0.00, -1.00, 665.0, 313.0)">c</text><text xml:space="preserve" font-family="HoeflerText-Regular,Hoefler Text" font-size="36.0" fill="#5E5E5E" transform="matrix(1.00, 0.00, -0.00, -1.00, 681.6, 313.0)">h</text><text xml:space="preserve" font-family="HoeflerText-Regular,Hoefler Text" font-size="36.0" fill="#5E5E5E" transform="matrix(1.00, 0.00, -0.00, -1.00, 701.5, 313.0)"> </text><text xml:space="preserve" font-family="HoeflerText-Regular,Hoefler Text" font-size="36.0" fill="#5E5E5E" transform="matrix(1.00, 0.00, -0.00, -1.00, 710.5, 313.0)">e</text><text xml:space="preserve" font-family="HoeflerText-Regular,Hoefler Text" font-size="36.0" fill="#5E5E5E" transform="matrix(1.00, 0.00, -0.00, -1.00, 727.4, 313.0)">a</text><text xml:space="preserve" font-family="HoeflerText-Regular,Hoefler Text" font-size="36.0" fill="#5E5E5E" transform="matrix(1.00, 0.00, -0.00, -1.00, 743.8, 313.0)">s</text><text xml:space="preserve" font-family="HoeflerText-Regular,Hoefler Text" font-size="36.0" fill="#5E5E5E" transform="matrix(1.00, 0.00, -0.00, -1.00, 757.6, 313.0)">i</text><text xml:space="preserve" font-family="HoeflerText-Regular,Hoefler Text" font-size="36.0" fill="#5E5E5E" transform="matrix(1.00, 0.00, -0.00, -1.00, 767.6, 313.0)">e</text><text xml:space="preserve" font-family="HoeflerText-Regular,Hoefler Text" font-size="36.0" fill="#5E5E5E" transform="matrix(1.00, 0.00, -0.00, -1.00, 784.5, 313.0)">r</text><text xml:space="preserve" font-family="HoeflerText-Regular,Hoefler Text" font-size="36.0" fill="#5E5E5E" transform="matrix(1.00, 0.00, -0.00, -1.00, 797.9, 313.0)"> </text><text xml:space="preserve" font-family="HoeflerText-Regular,Hoefler Text" font-size="36.0" fill="#5E5E5E" transform="matrix(1.00, 0.00, -0.00, -1.00, 806.9, 313.0)">n</text><text xml:space="preserve" font-family="HoeflerText-Regular,Hoefler Text" font-size="36.0" fill="#5E5E5E" transform="matrix(1.00, 0.00, -0.00, -1.00, 826.6, 313.0)">o</text><text xml:space="preserve" font-family="HoeflerText-Regular,Hoefler Text" font-size="36.0" fill="#5E5E5E" transform="matrix(1.00, 0.00, -0.00, -1.00, 845.9, 313.0)">w</text><text xml:space="preserve" font-family="HoeflerText-Regular,Hoefler Text" font-size="36.0" fill="#5E5E5E" transform="matrix(1.00, 0.00, -0.00, -1.00, 866.1, 313.0)">.</text><g><clipPath id="clip0x7f8494b77410"><path d="M 240.0 511.0 L 693.0 511.0 L 693.0 400.0 L 240.0 400.0 Z M 240.3 510.9 "></path></clipPath><g clip-path="url(#clip0x7f8494b77410)"><g><clipPath id="clip0x7f8494b935b0"><path d="M 425.2 510.8 C 413.0 511.6 399.9 506.0 391.8 495.6 C 385.3 487.1 381.4 475.8 380.6 462.7 C 380.0 453.4 380.3 451.4 383.0 446.2 C 386.2 440.1 391.8 436.0 399.3 434.2 C 401.6 433.7 413.5 433.1 425.8 433.0 L 448.2 433.0 L 450.2 437.5 C 453.0 444.2 452.7 448.8 449.5 448.8 C 448.1 448.8 446.6 449.3 446.3 449.9 C 445.9 450.5 447.3 456.4 449.5 463.1 C 457.2 487.0 453.6 499.6 436.8 507.7 C 433.2 509.5 429.2 510.5 425.2 510.8 Z M 683.5 503.0 C 671.9 503.0 672.9 503.8 658.0 481.9 C 652.3 473.5 647.2 466.8 646.8 466.9 C 646.3 467.0 645.4 468.9 644.8 471.2 C 643.6 475.2 643.5 475.0 634.6 475.0 L 625.6 475.0 L 629.1 463.7 C 632.7 451.3 633.1 447.5 631.3 438.5 L 630.3 433.0 L 638.7 433.0 L 647.2 434.0 L 649.9 441.5 C 652.0 447.5 657.8 456.3 673.0 476.2 L 693.0 502.9 L 693.0 503.0 L 683.5 503.0 Z M 288.0 500.6 L 285.8 496.3 C 282.7 488.6 286.0 480.0 293.9 475.2 C 299.6 471.8 308.9 471.8 314.5 475.2 C 316.9 476.7 318.8 478.5 318.8 479.4 C 318.8 480.3 317.9 480.1 316.4 478.8 C 312.8 475.5 302.9 475.9 297.5 479.5 C 290.9 484.0 288.2 488.8 288.0 495.1 L 288.0 500.6 Z M 271.9 497.7 C 271.6 497.9 270.1 496.1 268.1 492.9 C 265.8 489.2 265.1 486.1 265.1 480.0 C 265.1 466.9 271.5 457.7 284.3 452.2 C 296.2 447.1 314.0 451.7 319.1 461.1 C 320.2 463.2 319.5 463.0 314.5 460.2 C 300.4 452.0 280.4 459.3 272.0 475.7 C 269.1 481.4 268.5 490.7 270.8 495.0 C 271.8 496.7 272.1 497.5 271.9 497.7 Z M 422.3 494.6 C 428.8 494.1 434.4 489.9 435.5 483.8 C 436.3 479.7 431.0 456.7 427.9 451.1 C 426.9 449.3 424.8 448.8 416.6 448.8 C 407.3 448.8 406.3 449.1 402.7 452.7 C 399.4 455.9 398.8 457.6 398.8 463.0 C 398.8 477.4 406.0 490.7 415.5 493.8 C 417.8 494.5 420.1 494.8 422.3 494.6 Z M 554.0 494.3 C 546.7 494.0 539.3 492.3 534.6 489.2 C 526.5 483.9 521.4 472.0 520.4 456.5 C 519.7 444.6 519.8 443.9 523.0 440.2 C 524.9 438.1 528.4 435.7 530.9 434.8 C 533.5 433.8 542.7 433.1 552.8 433.0 L 570.0 433.0 L 571.0 437.9 C 572.6 447.8 573.7 447.2 555.9 447.7 C 541.7 448.1 539.6 448.5 537.9 450.8 C 533.5 456.7 535.4 457.4 556.3 457.8 C 578.6 458.2 577.2 457.2 578.3 472.0 C 579.0 482.6 577.6 487.4 572.6 490.6 C 568.4 493.3 561.2 494.5 554.0 494.3 Z M 361.6 494.0 L 360.2 488.1 C 359.4 485.1 358.4 481.8 358.1 480.9 C 357.7 479.7 359.9 479.2 366.1 479.2 C 375.4 479.2 375.2 479.0 377.0 488.8 L 378.0 494.0 L 369.7 494.0 L 361.6 494.0 Z M 467.0 494.0 L 466.0 488.1 C 465.5 485.1 464.0 477.8 462.6 472.0 C 459.9 460.4 459.3 444.8 461.4 440.8 C 463.0 437.9 467.0 435.5 472.8 434.2 C 478.1 432.9 504.4 432.8 506.1 434.0 C 506.9 434.5 508.2 438.5 509.1 442.9 C 513.6 464.0 518.2 486.8 519.0 490.1 L 520.0 494.0 L 512.4 494.0 L 504.6 494.0 L 501.0 478.2 C 499.1 469.7 497.1 460.3 496.6 457.4 C 495.2 448.8 494.0 447.5 487.7 447.5 C 480.4 447.5 476.1 450.4 476.1 455.4 C 476.1 457.5 477.6 466.0 479.4 474.5 C 481.2 482.9 482.8 490.6 482.8 491.7 C 482.8 493.3 481.0 494.0 474.9 494.0 L 467.0 494.0 Z M 612.7 493.5 L 592.8 493.0 L 589.1 475.9 C 587.1 466.4 584.2 453.4 582.8 446.9 C 581.3 440.4 580.4 434.6 580.8 434.0 C 581.2 433.5 584.4 433.0 588.0 433.0 C 592.9 433.0 594.9 433.5 595.8 435.3 C 596.4 436.5 598.6 445.6 600.6 455.4 C 605.9 481.8 603.4 479.2 624.6 479.2 C 634.5 479.2 642.6 479.7 642.6 480.2 C 642.6 480.7 642.0 483.3 641.3 486.0 C 639.3 493.0 636.0 493.9 612.7 493.5 Z M 250.3 489.8 C 250.1 489.8 247.7 486.5 245.0 482.6 C 240.9 476.4 240.3 474.4 240.3 467.7 C 240.3 451.0 253.4 433.3 270.6 427.0 C 277.3 424.5 291.8 424.6 299.2 427.1 C 306.3 429.5 314.4 436.1 318.1 442.4 L 320.7 446.8 L 315.0 442.0 C 297.1 426.8 264.3 436.0 252.2 459.5 C 248.7 466.2 247.3 479.8 249.3 485.7 C 250.1 487.9 250.6 489.8 250.3 489.8 Z M 356.5 475.0 L 354.8 467.0 C 347.0 429.3 345.2 424.7 337.8 424.0 C 334.3 423.6 333.6 422.9 332.3 417.8 C 331.5 414.6 330.8 411.3 330.8 410.4 C 330.8 409.3 334.0 409.0 341.4 409.4 C 358.1 410.1 360.1 413.0 367.4 445.5 C 369.8 456.4 372.5 467.6 373.0 470.3 L 374.0 475.0 L 365.1 475.0 L 356.5 475.0 Z M 472.0 419.8 L 468.8 416.6 C 466.3 413.9 464.9 413.6 459.1 414.0 C 455.4 414.3 451.9 413.9 451.5 413.2 C 450.9 412.3 449.8 412.4 448.2 413.4 C 446.2 414.6 445.2 414.6 443.7 413.3 C 442.3 412.2 441.4 412.1 440.8 413.1 C 438.9 416.1 437.0 414.2 437.0 408.6 L 437.0 403.0 L 444.1 403.0 C 448.9 403.0 450.8 403.2 450.8 404.5 C 450.8 407.7 453.6 408.3 454.3 405.3 C 455.3 401.7 456.5 401.8 458.1 405.5 C 459.0 407.5 460.6 408.5 462.8 408.5 C 465.2 408.5 466.2 407.7 466.5 405.5 C 467.0 401.8 469.1 401.7 469.7 405.3 C 469.9 406.7 470.7 408.0 471.4 408.0 C 472.1 408.0 472.9 406.7 473.2 405.3 C 473.6 402.4 477.9 401.5 479.5 404.0 C 480.1 405.1 480.8 405.1 481.8 404.0 C 482.6 403.2 485.3 402.6 487.8 402.6 C 491.3 402.6 492.2 403.0 491.6 404.5 C 491.2 405.6 491.4 406.8 492.1 407.2 C 494.2 408.5 493.6 412.8 491.2 413.7 C 490.0 414.1 487.9 414.1 486.5 413.7 C 485.1 413.3 482.5 413.9 480.6 415.1 C 477.9 416.9 476.8 416.9 475.3 415.6 C 473.6 414.3 473.6 414.5 473.0 416.9 L 472.0 419.8 Z M 504.0 418.4 C 501.8 418.4 501.4 418.0 502.4 416.8 C 503.2 415.8 503.3 414.0 502.7 412.5 C 500.2 406.5 502.0 399.5 504.8 404.0 C 505.4 405.1 506.1 405.1 507.1 404.0 C 509.3 401.9 516.1 402.2 516.1 404.5 C 516.1 407.7 518.8 408.3 519.6 405.3 C 520.2 403.3 521.4 402.6 524.1 402.6 C 526.2 402.6 528.3 403.2 528.8 404.0 C 529.3 404.9 530.2 404.8 531.5 403.8 C 532.6 402.8 535.3 402.5 538.1 403.0 C 541.6 403.5 543.0 403.2 543.6 401.8 C 544.7 399.0 546.7 399.5 546.7 402.6 C 546.7 404.0 545.8 405.2 544.8 405.2 C 542.0 405.2 539.8 409.7 541.7 411.6 C 543.8 413.7 539.3 415.1 535.6 413.5 C 533.7 412.6 531.7 412.7 529.7 413.5 C 527.6 414.5 525.7 414.4 523.4 413.4 C 520.9 412.3 519.2 412.3 516.8 413.4 C 514.2 414.5 512.8 414.4 510.3 412.7 C 506.4 410.2 505.1 411.1 506.2 415.3 C 506.9 417.9 506.5 418.4 504.0 418.4 Z M 568.2 418.4 C 567.6 418.5 566.8 417.9 566.2 416.5 C 565.8 415.4 564.3 414.5 562.8 414.5 C 559.0 414.5 556.0 410.9 556.0 406.4 C 556.0 402.9 556.4 402.6 560.4 402.6 C 562.8 402.6 565.5 403.3 566.4 404.1 C 567.7 405.4 568.4 405.4 569.6 404.1 C 572.1 401.6 578.4 402.2 580.0 405.1 C 583.6 411.9 579.0 416.7 572.7 412.6 C 569.1 410.3 567.4 411.6 568.7 415.8 C 569.2 417.3 568.8 418.2 568.2 418.4 Z M 598.4 414.0 C 591.2 413.8 589.9 412.5 589.5 404.9 C 589.4 403.6 589.7 402.6 590.2 402.6 C 590.7 402.6 591.8 403.6 592.8 404.9 C 594.4 407.1 594.5 407.1 595.4 404.9 C 596.6 401.7 598.4 402.0 598.9 405.5 C 599.4 409.3 601.8 408.9 602.7 405.0 C 603.2 402.9 603.8 402.5 604.5 403.6 C 605.2 404.7 606.2 404.8 608.0 403.9 C 611.3 402.1 616.9 402.2 618.0 404.0 C 618.7 405.1 619.3 405.1 620.4 404.0 C 622.5 401.9 623.4 402.2 625.1 405.9 C 625.9 407.7 627.5 409.2 628.6 409.2 C 629.8 409.2 631.3 407.7 632.0 405.9 C 633.1 402.9 634.0 402.6 640.6 402.6 C 647.6 402.6 650.2 404.1 645.9 405.7 C 644.8 406.1 643.9 407.9 643.9 409.7 C 643.9 414.0 639.6 415.4 635.2 412.5 C 632.4 410.7 631.8 410.7 631.2 412.3 C 630.4 414.3 625.9 414.5 622.9 412.7 C 622.1 412.1 620.2 412.3 618.7 413.1 C 615.1 415.0 609.7 413.5 608.9 410.2 C 608.1 407.1 605.3 408.2 605.3 411.7 C 605.3 413.8 604.3 414.1 598.4 414.0 Z M 598.4 414.0 "></path></clipPath><g clip-path="url(#clip0x7f8494b935b0)"><image xlink:href="../../8AC48E7C-CFE7-4589-98AA-6965E247F435/assets/C029A99EAA76FA1A5F42D7A09A547B35.png" width="453.00" height="111.00" transform="matrix(1.00, 0.00, -0.00, -1.00, 240.0, 511.0)"></image></g></g></g></g></g></svg>