<?xml version="1.0" encoding="UTF-8" standalone="no"?><svg xmlns="http://www.w3.org/2000/svg" xmlns:xlink="http://www.w3.org/1999/xlink" clip-rule="evenodd" stroke-miterlimit="10" viewBox="0 0 1024 768"><desc>SVG generated by Keynote</desc><defs></defs><g transform="matrix(1.00, 0.00, -0.00, -1.00, 0.0, 768.0)"><g><clipPath id="clip0x7f84977ee080"><path d="M 0.0 768.0 L 1024.0 768.0 L 1024.0 0.0 L 0.0 0.0 Z M 0.0 768.0 "></path></clipPath><g clip-path="url(#clip0x7f84977ee080)"><image xlink:href="../../C667F2AE-898B-45BB-A62C-D7DBF1FCC302/assets/16FCC1994AC46CEBE0A3ED4AD69C42B7.jpeg" width="2048.00" height="1536.00" transform="matrix(0.50, 0.00, -0.00, -0.50, 0.0, 768.0)"></image></g></g><image xlink:href="../../FBD3513B-5D89-453E-99BA-D200804B808B/assets/37BC4BA47284CEA01A421BC73C7077CF.png" width="344.00" height="65.00" transform="matrix(1.00, 0.00, -0.00, -1.00, 340.0, 683.0)"></image><text xml:space="preserve" font-family="Baskerville,Baskerville" font-size="78.0" fill="#767366" transform="matrix(1.00, 0.00, -0.00, -1.00, 343.8, 626.2)">F</text><text xml:space="preserve" font-family="Baskerville,Baskerville" font-size="78.0" fill="#767366" transform="matrix(1.00, 0.00, -0.00, -1.00, 386.9, 626.2)">u</text><text xml:space="preserve" font-family="Baskerville,Baskerville" font-size="78.0" fill="#767366" transform="matrix(1.00, 0.00, -0.00, -1.00, 427.5, 626.2)">n</text><text xml:space="preserve" font-family="Baskerville,Baskerville" font-size="78.0" fill="#767366" transform="matrix(1.00, 0.00, -0.00, -1.00, 469.0, 626.2)">c</text><text xml:space="preserve" font-family="Baskerville,Baskerville" font-size="78.0" fill="#767366" transform="matrix(1.00, 0.00, -0.00, -1.00, 502.3, 626.2)">t</text><text xml:space="preserve" font-family="Baskerville,Baskerville" font-size="78.0" fill="#767366" transform="matrix(1.00, 0.00, -0.00, -1.00, 525.0, 626.2)">i</text><text xml:space="preserve" font-family="Baskerville,Baskerville" font-size="78.0" fill="#767366" transform="matrix(1.00, 0.00, -0.00, -1.00, 544.5, 626.2)">o</text><text xml:space="preserve" font-family="Baskerville,Baskerville" font-size="78.0" fill="#767366" transform="matrix(1.00, 0.00, -0.00, -1.00, 583.5, 626.2)">n</text><text xml:space="preserve" font-family="Baskerville,Baskerville" font-size="78.0" fill="#767366" transform="matrix(1.00, 0.00, -0.00, -1.00, 625.0, 626.2)">a</text><text xml:space="preserve" font-family="Baskerville,Baskerville" font-size="78.0" fill="#767366" transform="matrix(1.00, 0.00, -0.00, -1.00, 661.5, 626.2)">l</text><image xlink:href="../../FBD3513B-5D89-453E-99BA-D200804B808B/assets/356D5ADDA53D2E54FC9FB7199018D35B.png" width="466.00" height="70.00" transform="matrix(1.00, 0.00, -0.00, -1.00, 121.0, 562.0)"></image><image xlink:href="../../FBD3513B-5D89-453E-99BA-D200804B808B/assets/74D048AB2F972DA554C5843F35DB11BB.png" width="656.00" height="72.00" transform="matrix(1.00, 0.00, -0.00, -1.00, 120.0, 475.0)"></image><image xlink:href="../../FBD3513B-5D89-453E-99BA-D200804B808B/assets/46BA0ACF5FF9A39B925E2EAC27A4572F.png" width="558.00" height="68.00" transform="matrix(1.00, 0.00, -0.00, -1.00, 121.0, 348.0)"></image><image xlink:href="../../FBD3513B-5D89-453E-99BA-D200804B808B/assets/4649ECBEA101B632BCD7982D72D05599.png" width="172.00" height="66.00" transform="matrix(1.67, 0.00, -0.00, -1.67, 118.0, 224.0)"></image></g></svg>