<?xml version="1.0" encoding="UTF-8" standalone="no"?><svg xmlns="http://www.w3.org/2000/svg" xmlns:xlink="http://www.w3.org/1999/xlink" clip-rule="evenodd" stroke-miterlimit="10" viewBox="0 0 1024 768"><desc>SVG generated by Keynote</desc><defs><pattern id="385CA82E-9805-406A-A5B1-92AF14BE4151" patternUnits="userSpaceOnUse" width="200" height="200" viewBox="0 0 200 200"><image xlink:href="../../E6608A9F-EF1A-4D60-9725-CA055799E6D1/assets/485FE7FDBF10BC2DF2D1E272CE93027F.jpeg" width="200.00" height="200.00"></image></pattern></defs><g transform="matrix(1.00, 0.00, -0.00, -1.00, 0.0, 768.0)"><g><clipPath id="clip0x7f849a6e3fe0"><path d="M 0.0 768.0 L 1024.0 768.0 L 1024.0 0.0 L 0.0 0.0 Z M 0.0 768.0 "></path></clipPath><g clip-path="url(#clip0x7f849a6e3fe0)"><image xlink:href="../../C667F2AE-898B-45BB-A62C-D7DBF1FCC302/assets/16FCC1994AC46CEBE0A3ED4AD69C42B7.jpeg" width="2048.00" height="1536.00" transform="matrix(0.50, 0.00, -0.00, -0.50, 0.0, 768.0)"></image></g></g><image xlink:href="../../E6608A9F-EF1A-4D60-9725-CA055799E6D1/assets/C7820572E4AF9514EB4594AFF3743295.png" width="300.00" height="200.00" transform="matrix(1.41, 0.00, -0.00, -1.41, 301.0, 708.0)"></image><g><clipPath id="clip0x7f8498c7b340"><path d="M 299.0 374.0 L 753.0 374.0 L 753.0 230.0 L 299.0 230.0 Z M 298.8 374.0 "></path></clipPath><g clip-path="url(#clip0x7f8498c7b340)"><path d="M 299.0 230.0 L 753.0 230.0 L 753.0 374.0 L 299.0 374.0 Z M 299.0 230.0 " fill="url(#385CA82E-9805-406A-A5B1-92AF14BE4151)"></path></g></g><g><clipPath id="clip0x7f8498c7d1e0"><path d="M 293.8 227.5 L 1159.4 227.5 L 1159.4 379.0 L 293.8 379.0 Z M 293.8 227.5 "></path></clipPath><g clip-path="url(#clip0x7f8498c7d1e0)"><text xml:space="preserve" font-family="HoeflerText-Regular,Hoefler Text" font-size="36.0" fill="#FEFFFE" transform="matrix(1.00, 0.00, -0.00, -1.00, 399.2, 337.0)">C</text><text xml:space="preserve" font-family="HoeflerText-Regular,Hoefler Text" font-size="36.0" fill="#FEFFFE" transform="matrix(1.00, 0.00, -0.00, -1.00, 425.6, 337.0)">O</text><text xml:space="preserve" font-family="HoeflerText-Regular,Hoefler Text" font-size="36.0" fill="#FEFFFE" transform="matrix(1.00, 0.00, -0.00, -1.00, 455.4, 337.0)">N</text><text xml:space="preserve" font-family="HoeflerText-Regular,Hoefler Text" font-size="36.0" fill="#FEFFFE" transform="matrix(1.00, 0.00, -0.00, -1.00, 486.3, 337.0)">T</text><text xml:space="preserve" font-family="HoeflerText-Regular,Hoefler Text" font-size="36.0" fill="#FEFFFE" transform="matrix(1.00, 0.00, -0.00, -1.00, 510.0, 337.0)">A</text><text xml:space="preserve" font-family="HoeflerText-Regular,Hoefler Text" font-size="36.0" fill="#FEFFFE" transform="matrix(1.00, 0.00, -0.00, -1.00, 535.2, 337.0)">C</text><text xml:space="preserve" font-family="HoeflerText-Regular,Hoefler Text" font-size="36.0" fill="#FEFFFE" transform="matrix(1.00, 0.00, -0.00, -1.00, 561.6, 337.0)">T</text><text xml:space="preserve" font-family="HoeflerText-Regular,Hoefler Text" font-size="36.0" fill="#FEFFFE" transform="matrix(1.00, 0.00, -0.00, -1.00, 585.4, 337.0)"> </text><text xml:space="preserve" font-family="HoeflerText-Regular,Hoefler Text" font-size="36.0" fill="#FEFFFE" transform="matrix(1.00, 0.00, -0.00, -1.00, 594.4, 337.0)">M</text><text xml:space="preserve" font-family="HoeflerText-Regular,Hoefler Text" font-size="36.0" fill="#FEFFFE" transform="matrix(1.00, 0.00, -0.00, -1.00, 629.4, 337.0)">E</text><text xml:space="preserve" font-family="HoeflerText-Regular,Hoefler Text" font-size="26.0" fill="#FEFFFE" transform="matrix(1.00, 0.00, -0.00, -1.00, 302.8, 303.3)">E</text><text xml:space="preserve" font-family="HoeflerText-Regular,Hoefler Text" font-size="26.0" fill="#FEFFFE" transform="matrix(1.00, 0.00, -0.00, -1.00, 319.7, 303.3)">m</text><text xml:space="preserve" font-family="HoeflerText-Regular,Hoefler Text" font-size="26.0" fill="#FEFFFE" transform="matrix(1.00, 0.00, -0.00, -1.00, 341.2, 303.3)">a</text><text xml:space="preserve" font-family="HoeflerText-Regular,Hoefler Text" font-size="26.0" fill="#FEFFFE" transform="matrix(1.00, 0.00, -0.00, -1.00, 352.8, 303.3)">i</text><text xml:space="preserve" font-family="HoeflerText-Regular,Hoefler Text" font-size="26.0" fill="#FEFFFE" transform="matrix(1.00, 0.00, -0.00, -1.00, 360.1, 303.3)">l</text><text xml:space="preserve" font-family="HoeflerText-Regular,Hoefler Text" font-size="26.0" fill="#FEFFFE" transform="matrix(1.00, 0.00, -0.00, -1.00, 366.8, 303.3)">:</text><text xml:space="preserve" font-family="HoeflerText-Regular,Hoefler Text" font-size="26.0" fill="#FEFFFE" transform="matrix(1.00, 0.00, -0.00, -1.00, 373.2, 303.3)"> </text><text xml:space="preserve" font-family="HoeflerText-Regular,Hoefler Text" font-size="26.0" fill="#FEFFFE" transform="matrix(1.00, 0.00, -0.00, -1.00, 379.7, 303.3)"> </text><text xml:space="preserve" font-family="HoeflerText-Regular,Hoefler Text" font-size="26.0" fill="#FEFFFE" transform="matrix(1.00, 0.00, -0.00, -1.00, 386.2, 303.3)"> </text><text xml:space="preserve" font-family="HoeflerText-Regular,Hoefler Text" font-size="26.0" fill="#FEFFFE" transform="matrix(1.00, 0.00, -0.00, -1.00, 392.7, 303.3)"> </text><text xml:space="preserve" font-family="HoeflerText-Regular,Hoefler Text" font-size="26.0" fill="#FEFFFE" transform="matrix(1.00, 0.00, -0.00, -1.00, 399.2, 303.3)"> </text><text xml:space="preserve" font-family="HoeflerText-Regular,Hoefler Text" font-size="26.0" fill="#FEFFFE" transform="matrix(1.00, 0.00, -0.00, -1.00, 405.7, 303.3)"> </text><text xml:space="preserve" font-family="HoeflerText-Regular,Hoefler Text" font-size="26.0" fill="#FEFFFE" transform="matrix(1.00, 0.00, -0.00, -1.00, 412.2, 303.3)"> </text><text xml:space="preserve" font-family="HoeflerText-Regular,Hoefler Text" font-size="26.0" fill="#FEFFFE" transform="matrix(1.00, 0.00, -0.00, -1.00, 418.7, 303.3)">a</text><text xml:space="preserve" font-family="HoeflerText-Regular,Hoefler Text" font-size="26.0" fill="#FEFFFE" transform="matrix(1.00, 0.00, -0.00, -1.00, 430.3, 303.3)">l</text><text xml:space="preserve" font-family="HoeflerText-Regular,Hoefler Text" font-size="26.0" fill="#FEFFFE" transform="matrix(1.00, 0.00, -0.00, -1.00, 437.1, 303.3)">e</text><text xml:space="preserve" font-family="HoeflerText-Regular,Hoefler Text" font-size="26.0" fill="#FEFFFE" transform="matrix(1.00, 0.00, -0.00, -1.00, 449.2, 303.3)">x</text><text xml:space="preserve" font-family="HoeflerText-Regular,Hoefler Text" font-size="26.0" fill="#FEFFFE" transform="matrix(1.00, 0.00, -0.00, -1.00, 461.8, 303.3)">.</text><text xml:space="preserve" font-family="HoeflerText-Regular,Hoefler Text" font-size="26.0" fill="#FEFFFE" transform="matrix(1.00, 0.00, -0.00, -1.00, 468.2, 303.3)">s</text><text xml:space="preserve" font-family="HoeflerText-Regular,Hoefler Text" font-size="26.0" fill="#FEFFFE" transform="matrix(1.00, 0.00, -0.00, -1.00, 478.1, 303.3)">i</text><text xml:space="preserve" font-family="HoeflerText-Regular,Hoefler Text" font-size="26.0" fill="#FEFFFE" transform="matrix(1.00, 0.00, -0.00, -1.00, 485.4, 303.3)">m</text><text xml:space="preserve" font-family="HoeflerText-Regular,Hoefler Text" font-size="26.0" fill="#FEFFFE" transform="matrix(1.00, 0.00, -0.00, -1.00, 506.9, 303.3)">o</text><text xml:space="preserve" font-family="HoeflerText-Regular,Hoefler Text" font-size="26.0" fill="#FEFFFE" transform="matrix(1.00, 0.00, -0.00, -1.00, 520.8, 303.3)">n</text><text xml:space="preserve" font-family="HoeflerText-Regular,Hoefler Text" font-size="26.0" fill="#FEFFFE" transform="matrix(1.00, 0.00, -0.00, -1.00, 535.1, 303.3)">i</text><text xml:space="preserve" font-family="HoeflerText-Regular,Hoefler Text" font-size="26.0" fill="#FEFFFE" transform="matrix(1.00, 0.00, -0.00, -1.00, 542.4, 303.3)">a</text><text xml:space="preserve" font-family="HoeflerText-Regular,Hoefler Text" font-size="26.0" fill="#FEFFFE" transform="matrix(1.00, 0.00, -0.00, -1.00, 554.0, 303.3)">n</text><text xml:space="preserve" font-family="HoeflerText-Regular,Hoefler Text" font-size="26.0" fill="#FEFFFE" transform="matrix(1.00, 0.00, -0.00, -1.00, 568.2, 303.3)">@</text><text xml:space="preserve" font-family="HoeflerText-Regular,Hoefler Text" font-size="26.0" fill="#FEFFFE" transform="matrix(1.00, 0.00, -0.00, -1.00, 588.3, 303.3)">g</text><text xml:space="preserve" font-family="HoeflerText-Regular,Hoefler Text" font-size="26.0" fill="#FEFFFE" transform="matrix(1.00, 0.00, -0.00, -1.00, 600.6, 303.3)">m</text><text xml:space="preserve" font-family="HoeflerText-Regular,Hoefler Text" font-size="26.0" fill="#FEFFFE" transform="matrix(1.00, 0.00, -0.00, -1.00, 622.1, 303.3)">a</text><text xml:space="preserve" font-family="HoeflerText-Regular,Hoefler Text" font-size="26.0" fill="#FEFFFE" transform="matrix(1.00, 0.00, -0.00, -1.00, 633.7, 303.3)">i</text><text xml:space="preserve" font-family="HoeflerText-Regular,Hoefler Text" font-size="26.0" fill="#FEFFFE" transform="matrix(1.00, 0.00, -0.00, -1.00, 641.0, 303.3)">l</text><text xml:space="preserve" font-family="HoeflerText-Regular,Hoefler Text" font-size="26.0" fill="#FEFFFE" transform="matrix(1.00, 0.00, -0.00, -1.00, 647.7, 303.3)">.</text><text xml:space="preserve" font-family="HoeflerText-Regular,Hoefler Text" font-size="26.0" fill="#FEFFFE" transform="matrix(1.00, 0.00, -0.00, -1.00, 654.1, 303.3)">c</text><text xml:space="preserve" font-family="HoeflerText-Regular,Hoefler Text" font-size="26.0" fill="#FEFFFE" transform="matrix(1.00, 0.00, -0.00, -1.00, 665.9, 303.3)">o</text><text xml:space="preserve" font-family="HoeflerText-Regular,Hoefler Text" font-size="26.0" fill="#FEFFFE" transform="matrix(1.00, 0.00, -0.00, -1.00, 679.8, 303.3)">m</text><path d="M 120.0 74.1 L 402.6 74.1 " fill="none" stroke="#FEFFFE" stroke-width="1.89" transform="matrix(1.00, 0.00, 0.00, -1.00, 298.8, 374.0)"></path><text xml:space="preserve" font-family="HoeflerText-Regular,Hoefler Text" font-size="26.0" fill="#FEFFFE" transform="matrix(1.00, 0.00, -0.00, -1.00, 302.8, 272.3)">P</text><text xml:space="preserve" font-family="HoeflerText-Regular,Hoefler Text" font-size="26.0" fill="#FEFFFE" transform="matrix(1.00, 0.00, -0.00, -1.00, 317.8, 272.3)">o</text><text xml:space="preserve" font-family="HoeflerText-Regular,Hoefler Text" font-size="26.0" fill="#FEFFFE" transform="matrix(1.00, 0.00, -0.00, -1.00, 331.8, 272.3)">r</text><text xml:space="preserve" font-family="HoeflerText-Regular,Hoefler Text" font-size="26.0" fill="#FEFFFE" transform="matrix(1.00, 0.00, -0.00, -1.00, 341.7, 272.3)">t</text><text xml:space="preserve" font-family="HoeflerText-Regular,Hoefler Text" font-size="26.0" fill="#FEFFFE" transform="matrix(1.00, 0.00, -0.00, -1.00, 351.3, 272.3)">f</text><text xml:space="preserve" font-family="HoeflerText-Regular,Hoefler Text" font-size="26.0" fill="#FEFFFE" transform="matrix(1.00, 0.00, -0.00, -1.00, 360.0, 272.3)">o</text><text xml:space="preserve" font-family="HoeflerText-Regular,Hoefler Text" font-size="26.0" fill="#FEFFFE" transform="matrix(1.00, 0.00, -0.00, -1.00, 373.9, 272.3)">l</text><text xml:space="preserve" font-family="HoeflerText-Regular,Hoefler Text" font-size="26.0" fill="#FEFFFE" transform="matrix(1.00, 0.00, -0.00, -1.00, 380.7, 272.3)">i</text><text xml:space="preserve" font-family="HoeflerText-Regular,Hoefler Text" font-size="26.0" fill="#FEFFFE" transform="matrix(1.00, 0.00, -0.00, -1.00, 388.0, 272.3)">o</text><text xml:space="preserve" font-family="HoeflerText-Regular,Hoefler Text" font-size="26.0" fill="#FEFFFE" transform="matrix(1.00, 0.00, -0.00, -1.00, 401.9, 272.3)">:</text><text xml:space="preserve" font-family="HoeflerText-Regular,Hoefler Text" font-size="26.0" fill="#FEFFFE" transform="matrix(1.00, 0.00, -0.00, -1.00, 408.3, 272.3)"> </text><text xml:space="preserve" font-family="HoeflerText-Regular,Hoefler Text" font-size="26.0" fill="#FEFFFE" transform="matrix(1.00, 0.00, -0.00, -1.00, 414.8, 272.3)"> </text><text xml:space="preserve" font-family="HoeflerText-Regular,Hoefler Text" font-size="26.0" fill="#FEFFFE" transform="matrix(1.00, 0.00, -0.00, -1.00, 421.3, 272.3)">w</text><text xml:space="preserve" font-family="HoeflerText-Regular,Hoefler Text" font-size="26.0" fill="#FEFFFE" transform="matrix(1.00, 0.00, -0.00, -1.00, 439.5, 272.3)">w</text><text xml:space="preserve" font-family="HoeflerText-Regular,Hoefler Text" font-size="26.0" fill="#FEFFFE" transform="matrix(1.00, 0.00, -0.00, -1.00, 457.7, 272.3)">w</text><text xml:space="preserve" font-family="HoeflerText-Regular,Hoefler Text" font-size="26.0" fill="#FEFFFE" transform="matrix(1.00, 0.00, -0.00, -1.00, 472.3, 272.3)">.</text><text xml:space="preserve" font-family="HoeflerText-Regular,Hoefler Text" font-size="26.0" fill="#FEFFFE" transform="matrix(1.00, 0.00, -0.00, -1.00, 478.7, 272.3)">a</text><text xml:space="preserve" font-family="HoeflerText-Regular,Hoefler Text" font-size="26.0" fill="#FEFFFE" transform="matrix(1.00, 0.00, -0.00, -1.00, 490.3, 272.3)">l</text><text xml:space="preserve" font-family="HoeflerText-Regular,Hoefler Text" font-size="26.0" fill="#FEFFFE" transform="matrix(1.00, 0.00, -0.00, -1.00, 497.0, 272.3)">e</text><text xml:space="preserve" font-family="HoeflerText-Regular,Hoefler Text" font-size="26.0" fill="#FEFFFE" transform="matrix(1.00, 0.00, -0.00, -1.00, 509.2, 272.3)">x</text><text xml:space="preserve" font-family="HoeflerText-Regular,Hoefler Text" font-size="26.0" fill="#FEFFFE" transform="matrix(1.00, 0.00, -0.00, -1.00, 521.7, 272.3)">s</text><text xml:space="preserve" font-family="HoeflerText-Regular,Hoefler Text" font-size="26.0" fill="#FEFFFE" transform="matrix(1.00, 0.00, -0.00, -1.00, 531.6, 272.3)">i</text><text xml:space="preserve" font-family="HoeflerText-Regular,Hoefler Text" font-size="26.0" fill="#FEFFFE" transform="matrix(1.00, 0.00, -0.00, -1.00, 538.9, 272.3)">m</text><text xml:space="preserve" font-family="HoeflerText-Regular,Hoefler Text" font-size="26.0" fill="#FEFFFE" transform="matrix(1.00, 0.00, -0.00, -1.00, 560.4, 272.3)">o</text><text xml:space="preserve" font-family="HoeflerText-Regular,Hoefler Text" font-size="26.0" fill="#FEFFFE" transform="matrix(1.00, 0.00, -0.00, -1.00, 574.4, 272.3)">n</text><text xml:space="preserve" font-family="HoeflerText-Regular,Hoefler Text" font-size="26.0" fill="#FEFFFE" transform="matrix(1.00, 0.00, -0.00, -1.00, 588.6, 272.3)">i</text><text xml:space="preserve" font-family="HoeflerText-Regular,Hoefler Text" font-size="26.0" fill="#FEFFFE" transform="matrix(1.00, 0.00, -0.00, -1.00, 595.9, 272.3)">a</text><text xml:space="preserve" font-family="HoeflerText-Regular,Hoefler Text" font-size="26.0" fill="#FEFFFE" transform="matrix(1.00, 0.00, -0.00, -1.00, 607.5, 272.3)">n</text><text xml:space="preserve" font-family="HoeflerText-Regular,Hoefler Text" font-size="26.0" fill="#FEFFFE" transform="matrix(1.00, 0.00, -0.00, -1.00, 621.7, 272.3)">.</text><text xml:space="preserve" font-family="HoeflerText-Regular,Hoefler Text" font-size="26.0" fill="#FEFFFE" transform="matrix(1.00, 0.00, -0.00, -1.00, 628.1, 272.3)">c</text><text xml:space="preserve" font-family="HoeflerText-Regular,Hoefler Text" font-size="26.0" fill="#FEFFFE" transform="matrix(1.00, 0.00, -0.00, -1.00, 639.9, 272.3)">o</text><text xml:space="preserve" font-family="HoeflerText-Regular,Hoefler Text" font-size="26.0" fill="#FEFFFE" transform="matrix(1.00, 0.00, -0.00, -1.00, 653.8, 272.3)">m</text><path d="M 122.5 105.1 L 376.6 105.1 " fill="none" stroke="#FEFFFE" stroke-width="1.89" transform="matrix(1.00, 0.00, 0.00, -1.00, 298.8, 374.0)"></path><text xml:space="preserve" font-family="HoeflerText-Regular,Hoefler Text" font-size="26.0" fill="#FEFFFE" transform="matrix(1.00, 0.00, -0.00, -1.00, 302.8, 241.3)">L</text><text xml:space="preserve" font-family="HoeflerText-Regular,Hoefler Text" font-size="26.0" fill="#FEFFFE" transform="matrix(1.00, 0.00, -0.00, -1.00, 318.9, 241.3)">i</text><text xml:space="preserve" font-family="HoeflerText-Regular,Hoefler Text" font-size="26.0" fill="#FEFFFE" transform="matrix(1.00, 0.00, -0.00, -1.00, 326.1, 241.3)">n</text><text xml:space="preserve" font-family="HoeflerText-Regular,Hoefler Text" font-size="26.0" fill="#FEFFFE" transform="matrix(1.00, 0.00, -0.00, -1.00, 340.4, 241.3)">k</text><text xml:space="preserve" font-family="HoeflerText-Regular,Hoefler Text" font-size="26.0" fill="#FEFFFE" transform="matrix(1.00, 0.00, -0.00, -1.00, 353.7, 241.3)">e</text><text xml:space="preserve" font-family="HoeflerText-Regular,Hoefler Text" font-size="26.0" fill="#FEFFFE" transform="matrix(1.00, 0.00, -0.00, -1.00, 365.9, 241.3)">d</text><text xml:space="preserve" font-family="HoeflerText-Regular,Hoefler Text" font-size="26.0" fill="#FEFFFE" transform="matrix(1.00, 0.00, -0.00, -1.00, 380.0, 241.3)">I</text><text xml:space="preserve" font-family="HoeflerText-Regular,Hoefler Text" font-size="26.0" fill="#FEFFFE" transform="matrix(1.00, 0.00, -0.00, -1.00, 390.4, 241.3)">n</text><text xml:space="preserve" font-family="HoeflerText-Regular,Hoefler Text" font-size="26.0" fill="#FEFFFE" transform="matrix(1.00, 0.00, -0.00, -1.00, 404.6, 241.3)">:</text><text xml:space="preserve" font-family="HoeflerText-Regular,Hoefler Text" font-size="26.0" fill="#FEFFFE" transform="matrix(1.00, 0.00, -0.00, -1.00, 411.0, 241.3)"> </text><text xml:space="preserve" font-family="HoeflerText-Regular,Hoefler Text" font-size="26.0" fill="#FEFFFE" transform="matrix(1.00, 0.00, -0.00, -1.00, 417.5, 241.3)">l</text><text xml:space="preserve" font-family="HoeflerText-Regular,Hoefler Text" font-size="26.0" fill="#FEFFFE" transform="matrix(1.00, 0.00, -0.00, -1.00, 424.3, 241.3)">i</text><text xml:space="preserve" font-family="HoeflerText-Regular,Hoefler Text" font-size="26.0" fill="#FEFFFE" transform="matrix(1.00, 0.00, -0.00, -1.00, 431.6, 241.3)">n</text><text xml:space="preserve" font-family="HoeflerText-Regular,Hoefler Text" font-size="26.0" fill="#FEFFFE" transform="matrix(1.00, 0.00, -0.00, -1.00, 445.8, 241.3)">k</text><text xml:space="preserve" font-family="HoeflerText-Regular,Hoefler Text" font-size="26.0" fill="#FEFFFE" transform="matrix(1.00, 0.00, -0.00, -1.00, 459.1, 241.3)">e</text><text xml:space="preserve" font-family="HoeflerText-Regular,Hoefler Text" font-size="26.0" fill="#FEFFFE" transform="matrix(1.00, 0.00, -0.00, -1.00, 471.3, 241.3)">d</text><text xml:space="preserve" font-family="HoeflerText-Regular,Hoefler Text" font-size="26.0" fill="#FEFFFE" transform="matrix(1.00, 0.00, -0.00, -1.00, 485.4, 241.3)">i</text><text xml:space="preserve" font-family="HoeflerText-Regular,Hoefler Text" font-size="26.0" fill="#FEFFFE" transform="matrix(1.00, 0.00, -0.00, -1.00, 492.7, 241.3)">n</text><text xml:space="preserve" font-family="HoeflerText-Regular,Hoefler Text" font-size="26.0" fill="#FEFFFE" transform="matrix(1.00, 0.00, -0.00, -1.00, 506.9, 241.3)">.</text><text xml:space="preserve" font-family="HoeflerText-Regular,Hoefler Text" font-size="26.0" fill="#FEFFFE" transform="matrix(1.00, 0.00, -0.00, -1.00, 513.3, 241.3)">c</text><text xml:space="preserve" font-family="HoeflerText-Regular,Hoefler Text" font-size="26.0" fill="#FEFFFE" transform="matrix(1.00, 0.00, -0.00, -1.00, 525.1, 241.3)">o</text><text xml:space="preserve" font-family="HoeflerText-Regular,Hoefler Text" font-size="26.0" fill="#FEFFFE" transform="matrix(1.00, 0.00, -0.00, -1.00, 539.0, 241.3)">m</text><text xml:space="preserve" font-family="HoeflerText-Regular,Hoefler Text" font-size="26.0" fill="#FEFFFE" transform="matrix(1.00, 0.00, -0.00, -1.00, 560.5, 241.3)">/</text><text xml:space="preserve" font-family="HoeflerText-Regular,Hoefler Text" font-size="26.0" fill="#FEFFFE" transform="matrix(1.00, 0.00, -0.00, -1.00, 567.9, 241.3)">i</text><text xml:space="preserve" font-family="HoeflerText-Regular,Hoefler Text" font-size="26.0" fill="#FEFFFE" transform="matrix(1.00, 0.00, -0.00, -1.00, 575.2, 241.3)">n</text><text xml:space="preserve" font-family="HoeflerText-Regular,Hoefler Text" font-size="26.0" fill="#FEFFFE" transform="matrix(1.00, 0.00, -0.00, -1.00, 589.4, 241.3)">/</text><text xml:space="preserve" font-family="HoeflerText-Regular,Hoefler Text" font-size="26.0" fill="#FEFFFE" transform="matrix(1.00, 0.00, -0.00, -1.00, 596.8, 241.3)">a</text><text xml:space="preserve" font-family="HoeflerText-Regular,Hoefler Text" font-size="26.0" fill="#FEFFFE" transform="matrix(1.00, 0.00, -0.00, -1.00, 608.4, 241.3)">l</text><text xml:space="preserve" font-family="HoeflerText-Regular,Hoefler Text" font-size="26.0" fill="#FEFFFE" transform="matrix(1.00, 0.00, -0.00, -1.00, 615.1, 241.3)">e</text><text xml:space="preserve" font-family="HoeflerText-Regular,Hoefler Text" font-size="26.0" fill="#FEFFFE" transform="matrix(1.00, 0.00, -0.00, -1.00, 627.3, 241.3)">x</text><text xml:space="preserve" font-family="HoeflerText-Regular,Hoefler Text" font-size="26.0" fill="#FEFFFE" transform="matrix(1.00, 0.00, -0.00, -1.00, 639.3, 241.3)">-</text><text xml:space="preserve" font-family="HoeflerText-Regular,Hoefler Text" font-size="26.0" fill="#FEFFFE" transform="matrix(1.00, 0.00, -0.00, -1.00, 648.2, 241.3)">s</text><text xml:space="preserve" font-family="HoeflerText-Regular,Hoefler Text" font-size="26.0" fill="#FEFFFE" transform="matrix(1.00, 0.00, -0.00, -1.00, 658.1, 241.3)">i</text><text xml:space="preserve" font-family="HoeflerText-Regular,Hoefler Text" font-size="26.0" fill="#FEFFFE" transform="matrix(1.00, 0.00, -0.00, -1.00, 665.4, 241.3)">m</text><text xml:space="preserve" font-family="HoeflerText-Regular,Hoefler Text" font-size="26.0" fill="#FEFFFE" transform="matrix(1.00, 0.00, -0.00, -1.00, 686.9, 241.3)">o</text><text xml:space="preserve" font-family="HoeflerText-Regular,Hoefler Text" font-size="26.0" fill="#FEFFFE" transform="matrix(1.00, 0.00, -0.00, -1.00, 700.8, 241.3)">n</text><text xml:space="preserve" font-family="HoeflerText-Regular,Hoefler Text" font-size="26.0" fill="#FEFFFE" transform="matrix(1.00, 0.00, -0.00, -1.00, 715.1, 241.3)">i</text><text xml:space="preserve" font-family="HoeflerText-Regular,Hoefler Text" font-size="26.0" fill="#FEFFFE" transform="matrix(1.00, 0.00, -0.00, -1.00, 722.4, 241.3)">a</text><text xml:space="preserve" font-family="HoeflerText-Regular,Hoefler Text" font-size="26.0" fill="#FEFFFE" transform="matrix(1.00, 0.00, -0.00, -1.00, 734.0, 241.3)">n</text><path d="M 118.8 136.1 L 449.4 136.1 " fill="none" stroke="#FEFFFE" stroke-width="1.89" transform="matrix(1.00, 0.00, 0.00, -1.00, 298.8, 374.0)"></path></g></g></g></svg>