<?xml version="1.0" encoding="UTF-8" standalone="no"?><svg xmlns="http://www.w3.org/2000/svg" xmlns:xlink="http://www.w3.org/1999/xlink" clip-rule="evenodd" stroke-miterlimit="10" viewBox="0 0 1024 768"><desc>SVG generated by Keynote</desc><defs></defs><g transform="matrix(1.00, 0.00, -0.00, -1.00, 0.0, 768.0)"><g><clipPath id="clip0x7f849a0b75e0"><path d="M 0.0 768.0 L 1024.0 768.0 L 1024.0 0.0 L 0.0 0.0 Z M 0.0 768.0 "></path></clipPath><g clip-path="url(#clip0x7f849a0b75e0)"><image xlink:href="../../C667F2AE-898B-45BB-A62C-D7DBF1FCC302/assets/16FCC1994AC46CEBE0A3ED4AD69C42B7.jpeg" width="2048.00" height="1536.00" transform="matrix(0.50, 0.00, -0.00, -0.50, 0.0, 768.0)"></image></g></g><image xlink:href="../../B6C87CE8-AEA3-4E75-8F4A-BD6E69AAD7AA/assets/B534A58913A8CDB1D8AC75D824BC34F5.png" width="888.00" height="83.00" transform="matrix(1.00, 0.00, -0.00, -1.00, 67.0, 728.0)"></image><text xml:space="preserve" font-family="Baskerville,Baskerville" font-size="77.2" fill="#767366" transform="matrix(1.00, 0.00, -0.00, -1.00, 68.7, 671.0)">C</text><text xml:space="preserve" font-family="Baskerville,Baskerville" font-size="77.2" fill="#767366" transform="matrix(1.00, 0.00, -0.00, -1.00, 124.1, 671.0)">u</text><text xml:space="preserve" font-family="Baskerville,Baskerville" font-size="77.2" fill="#767366" transform="matrix(1.00, 0.00, -0.00, -1.00, 164.4, 671.0)">r</text><text xml:space="preserve" font-family="Baskerville,Baskerville" font-size="77.2" fill="#767366" transform="matrix(1.00, 0.00, -0.00, -1.00, 193.3, 671.0)">r</text><text xml:space="preserve" font-family="Baskerville,Baskerville" font-size="77.2" fill="#767366" transform="matrix(1.00, 0.00, -0.00, -1.00, 222.2, 671.0)">y</text><text xml:space="preserve" font-family="Baskerville,Baskerville" font-size="77.2" fill="#767366" transform="matrix(1.00, 0.00, -0.00, -1.00, 257.6, 671.0)">i</text><text xml:space="preserve" font-family="Baskerville,Baskerville" font-size="77.2" fill="#767366" transform="matrix(1.00, 0.00, -0.00, -1.00, 276.9, 671.0)">n</text><text xml:space="preserve" font-family="Baskerville,Baskerville" font-size="77.2" fill="#767366" transform="matrix(1.00, 0.00, -0.00, -1.00, 318.0, 671.0)">g</text><text xml:space="preserve" font-family="Baskerville,Baskerville" font-size="77.2" fill="#767366" transform="matrix(1.00, 0.00, -0.00, -1.00, 354.1, 671.0)"> </text><text xml:space="preserve" font-family="Baskerville,Baskerville" font-size="77.2" fill="#767366" transform="matrix(1.00, 0.00, -0.00, -1.00, 373.4, 671.0)">o</text><text xml:space="preserve" font-family="Baskerville,Baskerville" font-size="77.2" fill="#767366" transform="matrix(1.00, 0.00, -0.00, -1.00, 412.0, 671.0)">n</text><text xml:space="preserve" font-family="Baskerville,Baskerville" font-size="77.2" fill="#767366" transform="matrix(1.00, 0.00, -0.00, -1.00, 453.1, 671.0)"> </text><text xml:space="preserve" font-family="Baskerville,Baskerville" font-size="77.2" fill="#767366" transform="matrix(1.00, 0.00, -0.00, -1.00, 472.4, 671.0)">b</text><text xml:space="preserve" font-family="Baskerville,Baskerville" font-size="77.2" fill="#767366" transform="matrix(1.00, 0.00, -0.00, -1.00, 511.2, 671.0)">u</text><text xml:space="preserve" font-family="Baskerville,Baskerville" font-size="77.2" fill="#767366" transform="matrix(1.00, 0.00, -0.00, -1.00, 551.4, 671.0)">i</text><text xml:space="preserve" font-family="Baskerville,Baskerville" font-size="77.2" fill="#767366" transform="matrix(1.00, 0.00, -0.00, -1.00, 570.7, 671.0)">l</text><text xml:space="preserve" font-family="Baskerville,Baskerville" font-size="77.2" fill="#767366" transform="matrix(1.00, 0.00, -0.00, -1.00, 589.2, 671.0)">d</text><text xml:space="preserve" font-family="Baskerville,Baskerville" font-size="77.2" fill="#767366" transform="matrix(1.00, 0.00, -0.00, -1.00, 629.4, 671.0)">i</text><text xml:space="preserve" font-family="Baskerville,Baskerville" font-size="77.2" fill="#767366" transform="matrix(1.00, 0.00, -0.00, -1.00, 648.7, 671.0)">n</text><text xml:space="preserve" font-family="Baskerville,Baskerville" font-size="77.2" fill="#767366" transform="matrix(1.00, 0.00, -0.00, -1.00, 689.8, 671.0)">g</text><text xml:space="preserve" font-family="Baskerville,Baskerville" font-size="77.2" fill="#767366" transform="matrix(1.00, 0.00, -0.00, -1.00, 725.9, 671.0)"> </text><text xml:space="preserve" font-family="Baskerville,Baskerville" font-size="77.2" fill="#767366" transform="matrix(1.00, 0.00, -0.00, -1.00, 745.2, 671.0)">b</text><text xml:space="preserve" font-family="Baskerville,Baskerville" font-size="77.2" fill="#767366" transform="matrix(1.00, 0.00, -0.00, -1.00, 784.7, 671.0)">l</text><text xml:space="preserve" font-family="Baskerville,Baskerville" font-size="77.2" fill="#767366" transform="matrix(1.00, 0.00, -0.00, -1.00, 803.2, 671.0)">o</text><text xml:space="preserve" font-family="Baskerville,Baskerville" font-size="77.2" fill="#767366" transform="matrix(1.00, 0.00, -0.00, -1.00, 841.8, 671.0)">c</text><text xml:space="preserve" font-family="Baskerville,Baskerville" font-size="77.2" fill="#767366" transform="matrix(1.00, 0.00, -0.00, -1.00, 874.8, 671.0)">k</text><text xml:space="preserve" font-family="Baskerville,Baskerville" font-size="77.2" fill="#767366" transform="matrix(1.00, 0.00, -0.00, -1.00, 910.3, 671.0)">s</text><text xml:space="preserve" font-family="Baskerville,Baskerville" font-size="77.2" fill="#767366" transform="matrix(1.00, 0.00, -0.00, -1.00, 936.1, 671.0)">:</text><text xml:space="preserve" font-family="Baskerville,Baskerville" font-size="77.2" fill="#767366" transform="matrix(1.00, 0.00, -0.00, -1.00, 955.4, 671.0)"> </text><image xlink:href="../../B6C87CE8-AEA3-4E75-8F4A-BD6E69AAD7AA/assets/FD21646A43C89E73AC5CAF856043BF44.png" width="813.00" height="82.00" transform="matrix(1.00, 0.00, -0.00, -1.00, 104.0, 639.0)"></image><text xml:space="preserve" font-family="Baskerville,Baskerville" font-size="77.2" fill="#767366" transform="matrix(1.00, 0.00, -0.00, -1.00, 109.7, 583.0)">p</text><text xml:space="preserve" font-family="Baskerville,Baskerville" font-size="77.2" fill="#767366" transform="matrix(1.00, 0.00, -0.00, -1.00, 150.0, 583.0)">a</text><text xml:space="preserve" font-family="Baskerville,Baskerville" font-size="77.2" fill="#767366" transform="matrix(1.00, 0.00, -0.00, -1.00, 186.1, 583.0)">r</text><text xml:space="preserve" font-family="Baskerville,Baskerville" font-size="77.2" fill="#767366" transform="matrix(1.00, 0.00, -0.00, -1.00, 214.3, 583.0)">t</text><text xml:space="preserve" font-family="Baskerville,Baskerville" font-size="77.2" fill="#767366" transform="matrix(1.00, 0.00, -0.00, -1.00, 236.8, 583.0)">i</text><text xml:space="preserve" font-family="Baskerville,Baskerville" font-size="77.2" fill="#767366" transform="matrix(1.00, 0.00, -0.00, -1.00, 256.1, 583.0)">a</text><text xml:space="preserve" font-family="Baskerville,Baskerville" font-size="77.2" fill="#767366" transform="matrix(1.00, 0.00, -0.00, -1.00, 292.2, 583.0)">l</text><text xml:space="preserve" font-family="Baskerville,Baskerville" font-size="77.2" fill="#767366" transform="matrix(1.00, 0.00, -0.00, -1.00, 310.7, 583.0)">l</text><text xml:space="preserve" font-family="Baskerville,Baskerville" font-size="77.2" fill="#767366" transform="matrix(1.00, 0.00, -0.00, -1.00, 329.2, 583.0)">y</text><text xml:space="preserve" font-family="Baskerville,Baskerville" font-size="77.2" fill="#767366" transform="matrix(1.00, 0.00, -0.00, -1.00, 364.7, 583.0)"> </text><text xml:space="preserve" font-family="Baskerville,Baskerville" font-size="77.2" fill="#767366" transform="matrix(1.00, 0.00, -0.00, -1.00, 384.0, 583.0)">a</text><text xml:space="preserve" font-family="Baskerville,Baskerville" font-size="77.2" fill="#767366" transform="matrix(1.00, 0.00, -0.00, -1.00, 420.2, 583.0)">p</text><text xml:space="preserve" font-family="Baskerville,Baskerville" font-size="77.2" fill="#767366" transform="matrix(1.00, 0.00, -0.00, -1.00, 460.4, 583.0)">p</text><text xml:space="preserve" font-family="Baskerville,Baskerville" font-size="77.2" fill="#767366" transform="matrix(1.00, 0.00, -0.00, -1.00, 500.6, 583.0)">l</text><text xml:space="preserve" font-family="Baskerville,Baskerville" font-size="77.2" fill="#767366" transform="matrix(1.00, 0.00, -0.00, -1.00, 519.1, 583.0)">i</text><text xml:space="preserve" font-family="Baskerville,Baskerville" font-size="77.2" fill="#767366" transform="matrix(1.00, 0.00, -0.00, -1.00, 538.4, 583.0)">e</text><text xml:space="preserve" font-family="Baskerville,Baskerville" font-size="77.2" fill="#767366" transform="matrix(1.00, 0.00, -0.00, -1.00, 572.2, 583.0)">d</text><text xml:space="preserve" font-family="Baskerville,Baskerville" font-size="77.2" fill="#767366" transform="matrix(1.00, 0.00, -0.00, -1.00, 612.4, 583.0)"> </text><text xml:space="preserve" font-family="Baskerville,Baskerville" font-size="77.2" fill="#767366" transform="matrix(1.00, 0.00, -0.00, -1.00, 631.7, 583.0)">f</text><text xml:space="preserve" font-family="Baskerville,Baskerville" font-size="77.2" fill="#767366" transform="matrix(1.00, 0.00, -0.00, -1.00, 652.6, 583.0)">u</text><text xml:space="preserve" font-family="Baskerville,Baskerville" font-size="77.2" fill="#767366" transform="matrix(1.00, 0.00, -0.00, -1.00, 692.8, 583.0)">n</text><text xml:space="preserve" font-family="Baskerville,Baskerville" font-size="77.2" fill="#767366" transform="matrix(1.00, 0.00, -0.00, -1.00, 733.9, 583.0)">c</text><text xml:space="preserve" font-family="Baskerville,Baskerville" font-size="77.2" fill="#767366" transform="matrix(1.00, 0.00, -0.00, -1.00, 766.9, 583.0)">t</text><text xml:space="preserve" font-family="Baskerville,Baskerville" font-size="77.2" fill="#767366" transform="matrix(1.00, 0.00, -0.00, -1.00, 789.4, 583.0)">i</text><text xml:space="preserve" font-family="Baskerville,Baskerville" font-size="77.2" fill="#767366" transform="matrix(1.00, 0.00, -0.00, -1.00, 808.7, 583.0)">o</text><text xml:space="preserve" font-family="Baskerville,Baskerville" font-size="77.2" fill="#767366" transform="matrix(1.00, 0.00, -0.00, -1.00, 847.3, 583.0)">n</text><text xml:space="preserve" font-family="Baskerville,Baskerville" font-size="77.2" fill="#767366" transform="matrix(1.00, 0.00, -0.00, -1.00, 888.3, 583.0)">s</text><image xlink:href="../../B6C87CE8-AEA3-4E75-8F4A-BD6E69AAD7AA/assets/67C74A9D05A612FC2E55308C8521925B.png" width="714.00" height="74.00" transform="matrix(1.00, 0.00, -0.00, -1.00, 168.0, 559.0)"></image><image xlink:href="../../B6C87CE8-AEA3-4E75-8F4A-BD6E69AAD7AA/assets/645863600F5BCDB9192582DC11888282.png" width="174.00" height="70.00" transform="matrix(1.00, 0.00, -0.00, -1.00, 169.0, 405.0)"></image><image xlink:href="../../B6C87CE8-AEA3-4E75-8F4A-BD6E69AAD7AA/assets/5C57744F976948270E09EDC340121D9B.png" width="590.00" height="188.00" transform="matrix(1.00, 0.00, -0.00, -1.00, 166.0, 239.0)"></image><image xlink:href="../../B6C87CE8-AEA3-4E75-8F4A-BD6E69AAD7AA/assets/4AA1E4023EEB160B687B2654BF30A323.jpeg" width="279.00" height="343.00" transform="matrix(0.65, 0.00, -0.00, -0.65, 399.0, 473.0)"></image></g></svg>