<?xml version="1.0" encoding="UTF-8" standalone="no"?><svg xmlns="http://www.w3.org/2000/svg" xmlns:xlink="http://www.w3.org/1999/xlink" clip-rule="evenodd" stroke-miterlimit="10" viewBox="0 0 1024 768"><desc>SVG generated by Keynote</desc><defs></defs><g transform="matrix(1.00, 0.00, -0.00, -1.00, 0.0, 768.0)"><g><clipPath id="clip0x7f8498fde7e0"><path d="M 0.0 768.0 L 1024.0 768.0 L 1024.0 0.0 L 0.0 0.0 Z M 0.0 768.0 "></path></clipPath><g clip-path="url(#clip0x7f8498fde7e0)"><image xlink:href="../../C667F2AE-898B-45BB-A62C-D7DBF1FCC302/assets/16FCC1994AC46CEBE0A3ED4AD69C42B7.jpeg" width="2048.00" height="1536.00" transform="matrix(0.50, 0.00, -0.00, -0.50, 0.0, 768.0)"></image></g></g><image xlink:href="A0F86FF0CCC848BEB39B57133751722B.png" width="211.00" height="82.00" transform="matrix(1.00, 0.00, -0.00, -1.00, 408.0, 683.0)"></image><text xml:space="preserve" font-family="Baskerville,Baskerville" font-size="78.0" fill="#767366" transform="matrix(1.00, 0.00, -0.00, -1.00, 411.2, 626.2)">P</text><text xml:space="preserve" font-family="Baskerville,Baskerville" font-size="78.0" fill="#767366" transform="matrix(1.00, 0.00, -0.00, -1.00, 455.1, 626.2)">i</text><text xml:space="preserve" font-family="Baskerville,Baskerville" font-size="78.0" fill="#767366" transform="matrix(1.00, 0.00, -0.00, -1.00, 474.6, 626.2)">p</text><text xml:space="preserve" font-family="Baskerville,Baskerville" font-size="78.0" fill="#767366" transform="matrix(1.00, 0.00, -0.00, -1.00, 515.2, 626.2)">i</text><text xml:space="preserve" font-family="Baskerville,Baskerville" font-size="78.0" fill="#767366" transform="matrix(1.00, 0.00, -0.00, -1.00, 534.7, 626.2)">n</text><text xml:space="preserve" font-family="Baskerville,Baskerville" font-size="78.0" fill="#767366" transform="matrix(1.00, 0.00, -0.00, -1.00, 576.2, 626.2)">g</text><image xlink:href="980F122ABC7E4703E76510CE4125A03A.png" width="896.00" height="216.00" transform="matrix(1.00, 0.00, -0.00, -1.00, 64.0, 546.0)"></image><g><clipPath id="clip0x7f849a094730"><path d="M 799.0 291.0 L 965.0 291.0 L 965.0 98.0 L 799.0 98.0 Z M 799.2 290.6 "></path></clipPath><g clip-path="url(#clip0x7f849a094730)"><g><clipPath id="clip0x7f849a094dd0"><path d="M 846.0 99.3 C 845.1 100.2 837.0 101.1 823.2 101.0 L 802.0 100.0 L 802.0 127.7 C 802.0 147.2 801.3 155.8 800.1 157.7 C 798.8 159.8 798.8 160.9 800.1 163.0 C 802.1 166.0 802.4 179.8 800.6 180.9 C 799.0 181.8 799.1 266.5 800.7 267.5 C 802.3 268.5 802.0 275.2 800.3 277.0 C 799.1 278.2 799.2 279.1 800.5 280.7 C 801.9 282.4 804.7 282.8 815.0 282.6 C 836.4 282.2 837.8 282.3 838.6 285.3 C 839.2 287.8 840.4 288.0 865.5 288.0 C 890.5 288.0 891.8 287.8 893.6 285.2 C 895.3 282.6 896.5 282.9 924.3 283.0 L 953.0 283.0 L 953.0 196.9 C 952.9 119.2 953.2 110.9 955.2 107.9 C 957.0 105.2 957.1 104.1 955.8 102.5 C 954.4 100.9 946.6 100.6 904.4 100.7 C 870.4 100.7 854.1 100.3 853.1 99.3 C 851.3 97.4 847.9 97.4 846.0 99.3 M 958.8 287.3 C 958.8 289.8 959.4 290.6 961.7 290.6 C 964.8 290.6 965.9 286.8 963.2 285.0 C 960.4 283.1 958.8 284.0 958.8 287.3 "></path></clipPath><g clip-path="url(#clip0x7f849a094dd0)"><image xlink:href="C25C48716150E1BC90430084F971ED8D.jpeg" width="223.00" height="226.00" transform="matrix(1.00, 0.00, -0.00, -1.00, 766.0, 308.0)"></image></g></g></g></g><image xlink:href="A85B2625FEFDD68B4C5FD2C0B1D772F9.png" width="391.00" height="129.00" transform="matrix(1.68, 0.00, -0.00, -1.67, 109.0, 320.0)"></image></g></svg>