<?xml version="1.0" encoding="UTF-8" standalone="no"?><svg xmlns="http://www.w3.org/2000/svg" xmlns:xlink="http://www.w3.org/1999/xlink" clip-rule="evenodd" stroke-miterlimit="10" viewBox="0 0 1024 768"><desc>SVG generated by Keynote</desc><defs></defs><g transform="matrix(1.00, 0.00, -0.00, -1.00, 0.0, 768.0)"><g><clipPath id="clip0x7f84989f8200"><path d="M 0.0 768.0 L 1024.0 768.0 L 1024.0 0.0 L 0.0 0.0 Z M 0.0 768.0 "></path></clipPath><g clip-path="url(#clip0x7f84989f8200)"><image xlink:href="../../C667F2AE-898B-45BB-A62C-D7DBF1FCC302/assets/16FCC1994AC46CEBE0A3ED4AD69C42B7.jpeg" width="2048.00" height="1536.00" transform="matrix(0.50, 0.00, -0.00, -0.50, 0.0, 768.0)"></image></g></g><image xlink:href="1A5053C233392FC0404DA18F912269BF.png" width="667.00" height="82.00" transform="matrix(1.00, 0.00, -0.00, -1.00, 178.0, 728.0)"></image><text xml:space="preserve" font-family="Baskerville,Baskerville" font-size="78.0" fill="#767366" transform="matrix(1.00, 0.00, -0.00, -1.00, 181.2, 671.2)">T</text><text xml:space="preserve" font-family="Baskerville,Baskerville" font-size="78.0" fill="#767366" transform="matrix(1.00, 0.00, -0.00, -1.00, 229.2, 671.2)">y</text><text xml:space="preserve" font-family="Baskerville,Baskerville" font-size="78.0" fill="#767366" transform="matrix(1.00, 0.00, -0.00, -1.00, 265.0, 671.2)">p</text><text xml:space="preserve" font-family="Baskerville,Baskerville" font-size="78.0" fill="#767366" transform="matrix(1.00, 0.00, -0.00, -1.00, 305.6, 671.2)">e</text><text xml:space="preserve" font-family="Baskerville,Baskerville" font-size="78.0" fill="#767366" transform="matrix(1.00, 0.00, -0.00, -1.00, 339.7, 671.2)"> </text><text xml:space="preserve" font-family="Baskerville,Baskerville" font-size="78.0" fill="#767366" transform="matrix(1.00, 0.00, -0.00, -1.00, 359.2, 671.2)">a</text><text xml:space="preserve" font-family="Baskerville,Baskerville" font-size="78.0" fill="#767366" transform="matrix(1.00, 0.00, -0.00, -1.00, 395.7, 671.2)">n</text><text xml:space="preserve" font-family="Baskerville,Baskerville" font-size="78.0" fill="#767366" transform="matrix(1.00, 0.00, -0.00, -1.00, 437.2, 671.2)">n</text><text xml:space="preserve" font-family="Baskerville,Baskerville" font-size="78.0" fill="#767366" transform="matrix(1.00, 0.00, -0.00, -1.00, 478.7, 671.2)">o</text><text xml:space="preserve" font-family="Baskerville,Baskerville" font-size="78.0" fill="#767366" transform="matrix(1.00, 0.00, -0.00, -1.00, 517.7, 671.2)">t</text><text xml:space="preserve" font-family="Baskerville,Baskerville" font-size="78.0" fill="#767366" transform="matrix(1.00, 0.00, -0.00, -1.00, 540.4, 671.2)">a</text><text xml:space="preserve" font-family="Baskerville,Baskerville" font-size="78.0" fill="#767366" transform="matrix(1.00, 0.00, -0.00, -1.00, 576.1, 671.2)">t</text><text xml:space="preserve" font-family="Baskerville,Baskerville" font-size="78.0" fill="#767366" transform="matrix(1.00, 0.00, -0.00, -1.00, 598.8, 671.2)">i</text><text xml:space="preserve" font-family="Baskerville,Baskerville" font-size="78.0" fill="#767366" transform="matrix(1.00, 0.00, -0.00, -1.00, 618.3, 671.2)">o</text><text xml:space="preserve" font-family="Baskerville,Baskerville" font-size="78.0" fill="#767366" transform="matrix(1.00, 0.00, -0.00, -1.00, 657.3, 671.2)">n</text><text xml:space="preserve" font-family="Baskerville,Baskerville" font-size="78.0" fill="#767366" transform="matrix(1.00, 0.00, -0.00, -1.00, 698.8, 671.2)">s</text><text xml:space="preserve" font-family="Baskerville,Baskerville" font-size="78.0" fill="#767366" transform="matrix(1.00, 0.00, -0.00, -1.00, 724.8, 671.2)"> </text><text xml:space="preserve" font-family="Baskerville,Baskerville" font-size="78.0" fill="#767366" transform="matrix(1.00, 0.00, -0.00, -1.00, 744.3, 671.2)">a</text><text xml:space="preserve" font-family="Baskerville,Baskerville" font-size="78.0" fill="#767366" transform="matrix(1.00, 0.00, -0.00, -1.00, 780.9, 671.2)">r</text><text xml:space="preserve" font-family="Baskerville,Baskerville" font-size="78.0" fill="#767366" transform="matrix(1.00, 0.00, -0.00, -1.00, 808.6, 671.2)">e</text><text xml:space="preserve" font-family="Baskerville,Baskerville" font-size="78.0" fill="#767366" transform="matrix(1.00, 0.00, -0.00, -1.00, 842.6, 671.2)"> </text><image xlink:href="6C0EC3A60213D4DBB854D427D26CEA27.png" width="360.00" height="65.00" transform="matrix(1.00, 0.00, -0.00, -1.00, 333.0, 639.0)"></image><text xml:space="preserve" font-family="Baskerville,Baskerville" font-size="78.0" fill="#767366" transform="matrix(1.00, 0.00, -0.00, -1.00, 335.3, 582.2)">c</text><text xml:space="preserve" font-family="Baskerville,Baskerville" font-size="78.0" fill="#767366" transform="matrix(1.00, 0.00, -0.00, -1.00, 368.6, 582.2)">o</text><text xml:space="preserve" font-family="Baskerville,Baskerville" font-size="78.0" fill="#767366" transform="matrix(1.00, 0.00, -0.00, -1.00, 407.6, 582.2)">n</text><text xml:space="preserve" font-family="Baskerville,Baskerville" font-size="78.0" fill="#767366" transform="matrix(1.00, 0.00, -0.00, -1.00, 449.1, 582.2)">t</text><text xml:space="preserve" font-family="Baskerville,Baskerville" font-size="78.0" fill="#767366" transform="matrix(1.00, 0.00, -0.00, -1.00, 471.8, 582.2)">r</text><text xml:space="preserve" font-family="Baskerville,Baskerville" font-size="78.0" fill="#767366" transform="matrix(1.00, 0.00, -0.00, -1.00, 500.2, 582.2)">a</text><text xml:space="preserve" font-family="Baskerville,Baskerville" font-size="78.0" fill="#767366" transform="matrix(1.00, 0.00, -0.00, -1.00, 536.7, 582.2)">c</text><text xml:space="preserve" font-family="Baskerville,Baskerville" font-size="78.0" fill="#767366" transform="matrix(1.00, 0.00, -0.00, -1.00, 570.1, 582.2)">t</text><text xml:space="preserve" font-family="Baskerville,Baskerville" font-size="78.0" fill="#767366" transform="matrix(1.00, 0.00, -0.00, -1.00, 592.8, 582.2)">u</text><text xml:space="preserve" font-family="Baskerville,Baskerville" font-size="78.0" fill="#767366" transform="matrix(1.00, 0.00, -0.00, -1.00, 633.4, 582.2)">a</text><text xml:space="preserve" font-family="Baskerville,Baskerville" font-size="78.0" fill="#767366" transform="matrix(1.00, 0.00, -0.00, -1.00, 669.9, 582.2)">l</text><image xlink:href="0F993E89267380E98683E443BE6A51CD.png" width="496.00" height="230.00" transform="matrix(1.00, 0.00, -0.00, -1.00, 229.0, 488.0)"></image></g></svg>